<svg xmlns="http://www.w3.org/2000/svg" viewBox="0 0 500 500" width="250" height="250">
	<style>
		tspan { white-space:pre }
		.shp0 { fill: #ebebeb } 
		.shp1 { fill: #37474f } 
		.shp2 { fill: #263238 } 
		.shp3 { fill: #455a64 } 
		.shp4 { fill: #ffffff } 
		.shp5 { fill: #f5f5f5 } 
		.shp6 { fill: #7234c9 } 
		.shp7 { opacity: 0.102;fill: #000000 } 
		.shp8 { opacity: 0.4;fill: #ffffff } 
		.shp9 { opacity: 0.702;fill: #ffffff } 
		.shp10 { fill: #e6e6e6 } 
	</style>
	<g id="freepik--Floor--inject-45">
		<g id="freepik--floor--inject-45">
			<path id="Layer" class="shp0" d="M128.22 403.87C198.97 441.63 313.68 441.63 384.43 403.87C455.18 366.11 455.19 304.87 384.43 267.11C313.67 229.35 198.97 229.34 128.22 267.11C57.47 304.88 57.47 366.1 128.22 403.87Z" />
		</g>
	</g>
	<g id="freepik--Device--inject-45">
		<g id="freepik--Laptop--inject-45">
			<path id="Layer" class="shp1" d="M114.07 342.17C114.12 342.89 114.26 343.61 114.48 344.3C114.7 345 115 345.66 115.38 346.28C115.75 346.9 116.2 347.48 116.71 348C117.22 348.52 117.78 348.97 118.4 349.36L239.73 419.41C240.4 419.75 241.1 420.01 241.83 420.18C242.56 420.36 243.31 420.45 244.06 420.45C244.81 420.45 245.56 420.36 246.29 420.18C247.02 420.01 247.72 419.75 248.39 419.41L414.39 323.56C415.7 322.87 416.79 321.83 417.56 320.57C418.32 319.3 418.73 317.85 418.73 316.37C418.73 314.89 418.32 313.44 417.56 312.17C416.79 310.91 415.7 309.87 414.39 309.18L293.07 239.18C292.4 238.84 291.7 238.58 290.97 238.41C290.24 238.23 289.49 238.14 288.74 238.14C287.99 238.14 287.24 238.23 286.51 238.41C285.78 238.58 285.08 238.84 284.41 239.18L118.4 335C117.79 335.38 117.22 335.84 116.71 336.36C116.2 336.87 115.76 337.45 115.38 338.07C115.01 338.69 114.71 339.35 114.48 340.04C114.26 340.73 114.12 341.45 114.07 342.17L114.07 342.17Z" />
			<path id="Layer" class="shp2" d="M164.13 308.58L118.4 335C117.09 335.69 116 336.73 115.23 337.99C114.47 339.26 114.06 340.71 114.06 342.19C114.06 343.67 114.47 345.12 115.23 346.39C116 347.65 117.09 348.69 118.4 349.38L239.73 419.43C240.06 419.6 240.4 419.76 240.76 419.89C241.11 420.02 241.47 420.12 241.83 420.21C242.2 420.29 242.57 420.35 242.94 420.39C243.31 420.43 243.69 420.44 244.06 420.43L244.06 308.58L164.13 308.58Z" />
			<path id="Layer" class="shp3" d="M110 335.14C109.4 334.73 108.85 334.25 108.36 333.72C107.87 333.18 107.45 332.58 107.09 331.95C106.74 331.31 106.47 330.64 106.27 329.94C106.08 329.24 105.97 328.52 105.94 327.79L105.94 183C105.98 182.25 106.11 181.51 106.32 180.79C106.53 180.07 106.83 179.38 107.21 178.73C107.58 178.08 108.03 177.48 108.55 176.93C109.06 176.39 109.64 175.91 110.27 175.5L276.27 79.65C277.52 78.86 278.97 78.43 280.45 78.41C281.92 78.38 283.38 78.76 284.66 79.5C285.94 80.23 287 81.31 287.72 82.6C288.43 83.9 288.78 85.36 288.73 86.84L288.73 231.64C288.69 232.39 288.56 233.13 288.35 233.85C288.13 234.57 287.84 235.26 287.46 235.91C287.09 236.56 286.64 237.16 286.12 237.7C285.61 238.25 285.03 238.73 284.4 239.14L118.4 335C117.76 335.34 117.08 335.6 116.37 335.78C115.67 335.96 114.94 336.06 114.22 336.07C113.49 336.08 112.76 336.01 112.05 335.85C111.34 335.7 110.65 335.46 110 335.14Z" />
			<path id="Layer" class="shp2" d="M126.26 189.73L107.21 178.73C107.02 179.05 106.85 179.39 106.71 179.73C106.56 180.08 106.44 180.43 106.33 180.79C106.23 181.15 106.15 181.51 106.1 181.88C106.04 182.25 106.01 182.63 106 183L106 327.79C106.03 328.52 106.14 329.24 106.33 329.94C106.53 330.64 106.8 331.31 107.15 331.95C107.51 332.58 107.93 333.18 108.42 333.72C108.91 334.25 109.46 334.73 110.06 335.14C110.71 335.46 111.4 335.69 112.11 335.85C112.82 336 113.55 336.07 114.27 336.06C115 336.05 115.72 335.95 116.43 335.77C117.13 335.58 117.81 335.32 118.45 334.98L137.39 324.05L126.26 189.73Z" />
			<path id="Layer" class="shp1" d="M114.07 187.7L114.07 332.48C114.07 335.24 116.01 336.36 118.4 334.98L284.4 239.14C285.03 238.73 285.61 238.25 286.12 237.7C286.64 237.16 287.09 236.56 287.46 235.91C287.84 235.26 288.13 234.57 288.35 233.85C288.56 233.13 288.69 232.39 288.73 231.64L288.73 86.85C288.73 84.09 286.79 82.97 284.4 84.35L118.4 180.2C117.77 180.61 117.19 181.09 116.68 181.63C116.16 182.18 115.71 182.78 115.34 183.43C114.96 184.08 114.66 184.77 114.45 185.49C114.24 186.21 114.11 186.95 114.07 187.7Z" />
			<path id="Layer" class="shp3" d="M118.4 340L239.73 410C240.4 410.34 241.1 410.6 241.83 410.77C242.56 410.95 243.31 411.04 244.06 411.04C244.81 411.04 245.56 410.95 246.29 410.77C247.02 410.6 247.72 410.34 248.39 410L414.39 314.15C416.79 312.77 416.79 310.53 414.39 309.15L293.07 239.15C292.4 238.81 291.7 238.55 290.97 238.38C290.24 238.2 289.49 238.11 288.74 238.11C287.99 238.11 287.24 238.2 286.51 238.38C285.78 238.55 285.08 238.81 284.41 239.15L118.4 335C116 336.36 116 338.6 118.4 340Z" />
			<path id="Layer" class="shp4" d="M120.73 188.23L282.08 95.08C283.51 94.25 284.68 94.92 284.68 96.58L284.68 221.91C284.65 222.36 284.58 222.8 284.45 223.23C284.32 223.67 284.14 224.08 283.92 224.47C283.69 224.86 283.42 225.22 283.11 225.55C282.8 225.87 282.46 226.16 282.08 226.41L120.73 319.56C119.29 320.39 118.13 319.72 118.13 318.06L118.13 192.73C118.15 192.28 118.23 191.84 118.36 191.4C118.49 190.97 118.67 190.56 118.89 190.17C119.12 189.78 119.39 189.42 119.7 189.09C120.01 188.76 120.35 188.48 120.73 188.23Z" />
			<path id="Layer" class="shp2" d="M132.48 336.23L286.57 247.23C286.9 247.06 287.26 246.93 287.62 246.84C287.99 246.76 288.36 246.71 288.74 246.71C289.11 246.71 289.48 246.76 289.85 246.84C290.21 246.93 290.57 247.06 290.9 247.23L298.79 251.78C299.05 251.87 299.28 252.04 299.44 252.26C299.6 252.49 299.69 252.75 299.69 253.03C299.69 253.31 299.6 253.57 299.44 253.8C299.28 254.02 299.05 254.19 298.79 254.28L144.67 343.27C144.34 343.44 143.98 343.57 143.62 343.66C143.25 343.74 142.88 343.79 142.5 343.79C142.13 343.79 141.76 343.74 141.39 343.66C141.03 343.57 140.67 343.44 140.34 343.27L132.48 338.73C132.22 338.64 131.99 338.47 131.83 338.25C131.67 338.02 131.58 337.76 131.58 337.48C131.58 337.2 131.67 336.94 131.83 336.71C131.99 336.49 132.22 336.32 132.48 336.23Z" />
			<path id="Layer" class="shp2" d="M152.8 348L306.88 259C307.22 258.83 307.57 258.7 307.93 258.61C308.3 258.53 308.67 258.48 309.05 258.48C309.43 258.48 309.8 258.53 310.17 258.61C310.53 258.7 310.88 258.83 311.22 259L359.69 287C359.95 287.09 360.18 287.26 360.34 287.48C360.5 287.71 360.59 287.97 360.59 288.25C360.59 288.53 360.5 288.79 360.34 289.02C360.18 289.24 359.95 289.41 359.69 289.5L205.78 378.32C205.44 378.49 205.09 378.62 204.73 378.71C204.36 378.79 203.99 378.84 203.61 378.84C203.23 378.84 202.86 378.79 202.49 378.71C202.13 378.62 201.78 378.49 201.44 378.32L152.8 350.45C152.55 350.36 152.34 350.19 152.19 349.97C152.04 349.75 151.95 349.49 151.95 349.23C151.95 348.96 152.04 348.7 152.19 348.48C152.34 348.26 152.55 348.09 152.8 348L152.8 348Z" />
			<path id="Layer" fill-rule="evenodd" class="shp3" d="M290.74 299.07C290.67 299.08 290.61 299.09 290.54 299.09C290.47 299.09 290.41 299.08 290.34 299.07C290.28 299.05 290.22 299.03 290.16 299L284.58 295.78C284.38 295.65 284.37 295.46 284.58 295.34L289.4 292.55C289.46 292.52 289.52 292.5 289.59 292.48C289.65 292.46 289.72 292.46 289.79 292.46C289.85 292.46 289.92 292.46 289.98 292.48C290.05 292.5 290.11 292.52 290.17 292.55L295.75 295.77C295.94 295.9 295.95 296.09 295.75 296.21L290.92 299C290.86 299.03 290.8 299.05 290.74 299.07ZM281.59 287.93C281.65 287.91 281.72 287.91 281.78 287.91C281.85 287.91 281.92 287.91 281.98 287.93C282.05 287.95 282.11 287.97 282.17 288L287.76 291.22C287.95 291.34 287.96 291.54 287.76 291.66L282.93 294.45C282.87 294.48 282.81 294.5 282.74 294.52C282.68 294.54 282.61 294.54 282.54 294.54C282.48 294.54 282.41 294.54 282.35 294.52C282.28 294.5 282.22 294.48 282.16 294.45L276.58 291.23C276.38 291.1 276.37 290.9 276.58 290.79L281.4 288C281.46 287.97 281.52 287.95 281.59 287.93ZM266 296.93C266.07 296.91 266.13 296.91 266.2 296.91C266.27 296.91 266.33 296.91 266.4 296.93C266.46 296.95 266.52 296.97 266.58 297L272.16 300.23C272.35 300.35 272.37 300.55 272.16 300.67L264 305.38C263.94 305.41 263.88 305.43 263.81 305.45C263.75 305.47 263.68 305.47 263.61 305.47C263.55 305.47 263.48 305.47 263.42 305.45C263.35 305.43 263.29 305.41 263.23 305.38L257.65 302.16C257.46 302.03 257.45 301.83 257.65 301.71L265.82 297C265.88 296.97 265.94 296.95 266 296.93ZM274.35 292C274.41 291.97 274.47 291.95 274.54 291.93C274.6 291.91 274.67 291.91 274.74 291.91C274.8 291.91 274.87 291.91 274.93 291.93C275 291.95 275.06 291.97 275.12 292L280.71 295.29C280.9 295.42 280.91 295.61 280.71 295.73L275.88 298.52C275.82 298.55 275.76 298.57 275.69 298.59C275.63 298.61 275.56 298.61 275.49 298.61C275.43 298.61 275.36 298.61 275.3 298.59C275.23 298.57 275.17 298.55 275.11 298.52L269.53 295.3C269.33 295.18 269.32 294.98 269.53 294.86L274.35 292.07L274.35 292ZM255.42 303C255.48 302.97 255.54 302.95 255.61 302.93C255.67 302.91 255.74 302.91 255.81 302.91C255.87 302.91 255.94 302.91 256 302.93C256.07 302.95 256.13 302.97 256.19 303L261.77 306.22C261.96 306.34 261.97 306.54 261.77 306.66L256.94 309.45C256.88 309.48 256.82 309.5 256.76 309.52C256.69 309.53 256.63 309.54 256.56 309.54C256.49 309.54 256.43 309.53 256.36 309.52C256.3 309.5 256.24 309.48 256.18 309.45L250.6 306.23C250.41 306.1 250.39 305.9 250.6 305.78L255.42 303ZM248.37 307C248.43 306.97 248.49 306.95 248.56 306.93C248.62 306.91 248.69 306.91 248.75 306.91C248.82 306.91 248.89 306.91 248.95 306.93C249.02 306.95 249.08 306.97 249.14 307L254.78 310.29C254.97 310.41 254.98 310.61 254.78 310.73L249.95 313.52C249.89 313.55 249.83 313.57 249.76 313.59C249.7 313.61 249.63 313.61 249.56 313.61C249.5 313.61 249.43 313.61 249.37 313.59C249.3 313.57 249.24 313.55 249.18 313.52L243.6 310.3C243.41 310.17 243.39 309.97 243.6 309.86L248.42 307.07L248.37 307ZM270.32 320.12C270.27 320.15 270.21 320.18 270.15 320.19C270.09 320.21 270.03 320.22 269.97 320.23C269.9 320.23 269.84 320.23 269.78 320.22C269.72 320.21 269.66 320.19 269.6 320.17L264.02 316.95C263.83 316.82 263.82 316.63 264.02 316.51L268.85 313.72C268.91 313.69 268.97 313.67 269.03 313.65C269.1 313.63 269.16 313.63 269.23 313.63C269.3 313.63 269.36 313.63 269.43 313.65C269.49 313.67 269.55 313.69 269.61 313.72L275.19 316.94C275.38 317.07 275.4 317.26 275.19 317.38L270.37 320.17L270.32 320.12ZM263.26 324.19C263.21 324.22 263.15 324.24 263.09 324.26C263.03 324.28 262.97 324.29 262.91 324.3C262.85 324.3 262.79 324.3 262.73 324.29C262.67 324.28 262.61 324.26 262.55 324.24L256.97 321.02C256.78 320.9 256.76 320.7 256.97 320.58L261.79 317.79C261.85 317.76 261.91 317.74 261.98 317.72C262.04 317.7 262.11 317.7 262.18 317.7C262.24 317.7 262.31 317.7 262.37 317.72C262.44 317.74 262.5 317.76 262.56 317.79L268.14 321.01C268.33 321.14 268.34 321.34 268.14 321.45L263.31 324.24L263.26 324.19ZM256.21 328.26C256.16 328.29 256.1 328.32 256.04 328.33C255.98 328.35 255.92 328.36 255.86 328.37C255.79 328.37 255.73 328.37 255.67 328.36C255.61 328.35 255.55 328.33 255.49 328.31L249.92 325.09C249.73 324.97 249.71 324.77 249.92 324.65L254.74 321.86C254.8 321.83 254.86 321.81 254.93 321.79C254.99 321.78 255.06 321.77 255.12 321.77C255.19 321.77 255.26 321.78 255.32 321.79C255.39 321.81 255.45 321.83 255.51 321.86L261.09 325.08C261.28 325.21 261.29 325.41 261.09 325.53L256.26 328.31L256.21 328.26ZM249.16 332.33C249.11 332.36 249.06 332.38 249 332.39C248.95 332.41 248.89 332.42 248.83 332.42C248.78 332.42 248.72 332.42 248.67 332.42C248.61 332.41 248.55 332.4 248.5 332.38L242.92 329.16C242.72 329.03 242.71 328.83 242.92 328.71L247.74 325.93C247.8 325.9 247.86 325.88 247.93 325.86C247.99 325.84 248.06 325.84 248.13 325.84C248.19 325.84 248.26 325.84 248.32 325.86C248.39 325.88 248.45 325.9 248.51 325.93L254.09 329.15C254.28 329.28 254.29 329.48 254.09 329.6L249.26 332.38L249.16 332.33ZM283.87 303.09C283.82 303.12 283.77 303.14 283.71 303.15C283.66 303.17 283.6 303.18 283.55 303.18C283.49 303.19 283.43 303.19 283.38 303.18C283.32 303.17 283.26 303.16 283.21 303.14L277.63 299.92C277.43 299.8 277.42 299.6 277.63 299.48L282.45 296.69C282.51 296.66 282.57 296.64 282.64 296.62C282.7 296.61 282.77 296.6 282.83 296.6C282.9 296.6 282.97 296.61 283.03 296.62C283.1 296.64 283.16 296.66 283.22 296.69L288.8 299.91C288.99 300.04 289 300.24 288.8 300.35L283.97 303.14L283.87 303.09ZM277.37 316.05C277.31 316.08 277.24 316.1 277.18 316.11C277.11 316.12 277.05 316.12 276.98 316.12C276.91 316.11 276.85 316.1 276.78 316.08C276.72 316.06 276.66 316.03 276.6 316L271 312.81C270.81 312.68 270.8 312.48 271 312.37L275.53 309.91C275.76 309.79 275.75 309.59 275.53 309.46L268.35 305.32C268.16 305.19 268.14 304.99 268.35 304.88L273.91 301.66C273.97 301.63 274.03 301.61 274.1 301.59C274.16 301.57 274.23 301.57 274.29 301.57C274.36 301.57 274.43 301.57 274.49 301.59C274.56 301.61 274.62 301.63 274.68 301.66L288.23 309.48C288.42 309.61 288.43 309.81 288.23 309.92L277.47 316.14L277.37 316.05ZM241.32 311.09C241.39 311.05 241.46 311.03 241.54 311.01C241.61 310.99 241.69 310.99 241.77 310.99C241.84 310.99 241.92 311.01 241.99 311.04C242.07 311.06 242.14 311.1 242.2 311.14L247.78 314.36C247.97 314.49 247.98 314.68 247.78 314.8L242.95 317.59C242.89 317.62 242.83 317.64 242.76 317.66C242.7 317.68 242.63 317.68 242.56 317.68C242.5 317.68 242.43 317.68 242.37 317.66C242.3 317.64 242.24 317.62 242.18 317.59L236.6 314.37C236.4 314.24 236.39 314.05 236.6 313.93L241.42 311.14L241.32 311.09ZM234.27 315.16C234.33 315.13 234.39 315.11 234.45 315.1C234.51 315.09 234.57 315.08 234.64 315.09C234.7 315.09 234.76 315.1 234.82 315.11C234.88 315.13 234.94 315.15 235 315.18L240.62 318.43C240.81 318.56 240.82 318.76 240.62 318.87L235.79 321.66C235.73 321.69 235.67 321.71 235.6 321.73C235.54 321.75 235.47 321.75 235.41 321.75C235.34 321.75 235.27 321.75 235.21 321.73C235.14 321.71 235.08 321.69 235.02 321.66L229.44 318.44C229.25 318.32 229.24 318.12 229.44 318L234.42 315.21L234.27 315.16ZM193.41 357.61C193.21 357.49 193.2 357.29 193.41 357.17L198.23 354.38C198.29 354.35 198.35 354.33 198.42 354.31C198.48 354.29 198.55 354.29 198.62 354.29C198.68 354.29 198.75 354.29 198.81 354.31C198.88 354.33 198.94 354.35 199 354.38L204.6 357.58C204.79 357.71 204.8 357.91 204.6 358.02L199.77 360.81C199.71 360.84 199.65 360.86 199.58 360.88C199.52 360.9 199.45 360.9 199.38 360.9C199.32 360.9 199.25 360.9 199.19 360.88C199.12 360.86 199.06 360.84 199 360.81L193.41 357.61ZM177.86 347.73C177.92 347.7 177.98 347.68 178.04 347.67C178.1 347.65 178.17 347.64 178.23 347.64C178.29 347.64 178.36 347.65 178.42 347.67C178.48 347.68 178.54 347.7 178.6 347.73L184.18 350.95C184.37 351.08 184.38 351.27 184.18 351.39L179.35 354.18C179.29 354.21 179.23 354.23 179.16 354.25C179.1 354.27 179.03 354.27 178.97 354.27C178.9 354.27 178.83 354.27 178.77 354.25C178.7 354.23 178.64 354.21 178.58 354.18L173 350.96C172.81 350.83 172.8 350.64 173 350.52L177.83 347.73L177.86 347.73ZM183.6 354.06C183.41 353.94 183.4 353.74 183.6 353.62L188.43 350.83C188.49 350.8 188.55 350.78 188.62 350.76C188.68 350.74 188.75 350.74 188.81 350.74C188.88 350.74 188.95 350.74 189.01 350.76C189.08 350.78 189.14 350.8 189.2 350.83L194.77 354.05C194.96 354.18 194.98 354.38 194.77 354.49L189.95 357.28C189.89 357.31 189.83 357.33 189.76 357.35C189.7 357.37 189.63 357.37 189.56 357.37C189.5 357.37 189.43 357.37 189.37 357.35C189.3 357.33 189.24 357.31 189.18 357.28L183.6 354.06ZM211.48 363.29C211.42 363.32 211.35 363.35 211.29 363.36C211.22 363.38 211.15 363.39 211.08 363.39C211.01 363.39 210.94 363.38 210.87 363.36C210.81 363.34 210.74 363.31 210.68 363.28L205.11 360.06C204.92 359.93 204.9 359.73 205.11 359.62L209.93 356.83C209.99 356.8 210.05 356.78 210.12 356.76C210.18 356.74 210.25 356.74 210.31 356.74C210.38 356.74 210.45 356.74 210.51 356.76C210.58 356.78 210.64 356.8 210.7 356.83L216.28 360.05C216.47 360.18 216.48 360.37 216.28 360.49L211.45 363.28L211.48 363.29ZM198.06 364.06C197.86 363.94 197.85 363.74 198.06 363.62L202.88 360.83C202.94 360.8 203 360.78 203.07 360.76C203.13 360.74 203.2 360.74 203.26 360.74C203.33 360.74 203.4 360.74 203.46 360.76C203.53 360.78 203.59 360.8 203.65 360.83L209.23 364.05C209.42 364.18 209.43 364.38 209.23 364.49L204.4 367.28C204.34 367.31 204.28 367.33 204.21 367.35C204.15 367.37 204.08 367.37 204.01 367.37C203.95 367.37 203.88 367.37 203.82 367.35C203.75 367.33 203.69 367.31 203.63 367.28L198.06 364.06ZM184.91 343.66C184.97 343.63 185.03 343.6 185.09 343.58C185.15 343.56 185.21 343.55 185.28 343.54C185.34 343.54 185.41 343.54 185.47 343.55C185.54 343.56 185.6 343.58 185.66 343.6L191.24 346.82C191.43 346.94 191.44 347.14 191.24 347.26L186.41 350.05C186.35 350.08 186.29 350.1 186.22 350.12C186.16 350.14 186.09 350.14 186.03 350.14C185.96 350.14 185.89 350.14 185.83 350.12C185.76 350.1 185.7 350.08 185.64 350.05L180.06 346.83C179.86 346.7 179.85 346.5 180.06 346.39L184.88 343.6L184.91 343.66ZM220.17 323.31C220.22 323.28 220.28 323.25 220.34 323.23C220.4 323.21 220.47 323.2 220.53 323.2C220.59 323.19 220.65 323.19 220.72 323.2C220.78 323.21 220.84 323.23 220.9 323.25L226.48 326.47C226.68 326.6 226.69 326.8 226.48 326.92L221.66 329.7C221.6 329.73 221.54 329.75 221.47 329.77C221.41 329.78 221.34 329.79 221.27 329.79C221.21 329.79 221.14 329.78 221.08 329.77C221.01 329.75 220.95 329.73 220.89 329.7L215.31 326.47C215.12 326.35 215.11 326.15 215.31 326.03L220.14 323.25L220.17 323.31ZM192.19 339.52C192.25 339.5 192.32 339.49 192.39 339.49C192.46 339.49 192.52 339.5 192.59 339.51C192.66 339.53 192.72 339.55 192.78 339.58L198.36 342.81C198.55 342.93 198.56 343.13 198.36 343.25L193.53 346.04C193.47 346.07 193.41 346.09 193.34 346.11C193.28 346.12 193.21 346.13 193.15 346.13C193.08 346.13 193.01 346.12 192.95 346.11C192.88 346.09 192.82 346.07 192.76 346.04L187.18 342.82C186.98 342.69 186.97 342.49 187.18 342.37L192 339.59C192.06 339.56 192.12 339.54 192.19 339.52ZM227.22 319.23C227.28 319.2 227.35 319.18 227.41 319.17C227.48 319.15 227.54 319.15 227.61 319.15C227.68 319.15 227.75 319.16 227.81 319.18C227.88 319.19 227.94 319.22 228 319.25L233.56 322.43C233.76 322.56 233.77 322.76 233.56 322.88L228.74 325.66C228.68 325.69 228.62 325.71 228.55 325.73C228.49 325.75 228.42 325.75 228.36 325.75C228.29 325.75 228.22 325.75 228.16 325.73C228.09 325.71 228.03 325.69 227.97 325.66L222.39 322.44C222.2 322.32 222.19 322.12 222.39 322L227.26 319.23L227.22 319.23ZM213.12 327.38C213.18 327.35 213.25 327.32 213.32 327.31C213.38 327.29 213.45 327.28 213.53 327.28C213.6 327.28 213.67 327.29 213.73 327.31C213.8 327.32 213.87 327.35 213.93 327.38L219.5 330.6C219.69 330.73 219.71 330.93 219.5 331.05L214.68 333.83C214.62 333.86 214.56 333.88 214.49 333.9C214.43 333.91 214.36 333.92 214.3 333.92C214.23 333.92 214.16 333.91 214.1 333.9C214.03 333.88 213.97 333.86 213.91 333.83L208.33 330.61C208.14 330.48 208.13 330.28 208.33 330.16L213.16 327.38L213.12 327.38ZM206.06 331.45C206.12 331.42 206.19 331.39 206.26 331.38C206.32 331.36 206.39 331.35 206.47 331.35C206.54 331.35 206.61 331.36 206.67 331.38C206.74 331.39 206.81 331.42 206.87 331.45L212.45 334.67C212.64 334.8 212.65 335 212.45 335.12L207.63 337.9C207.57 337.93 207.51 337.95 207.44 337.97C207.38 337.98 207.31 337.99 207.25 337.99C207.18 337.99 207.11 337.98 207.05 337.97C206.98 337.95 206.92 337.93 206.86 337.9L201.28 334.68C201.09 334.55 201.07 334.35 201.28 334.23L206.1 331.45L206.06 331.45ZM199.19 335.45C199.25 335.44 199.32 335.43 199.38 335.43C199.45 335.43 199.52 335.44 199.58 335.45C199.65 335.47 199.71 335.49 199.77 335.52L205.35 338.74C205.54 338.87 205.55 339.07 205.35 339.19L200.52 341.97C200.46 342 200.4 342.02 200.33 342.04C200.27 342.06 200.2 342.06 200.13 342.06C200.07 342.06 200 342.06 199.94 342.04C199.87 342.02 199.81 342 199.75 341.97L194.18 338.75C193.99 338.62 193.97 338.42 194.18 338.3L199 335.52C199.06 335.49 199.12 335.47 199.19 335.45ZM235.06 340.47C235 340.5 234.93 340.53 234.86 340.54C234.8 340.56 234.73 340.56 234.66 340.56C234.59 340.56 234.52 340.55 234.45 340.53C234.38 340.51 234.32 340.48 234.26 340.45L228.68 337.23C228.49 337.1 228.48 336.9 228.68 336.78L233.51 334C233.57 333.97 233.63 333.95 233.7 333.93C233.76 333.92 233.83 333.91 233.89 333.91C233.96 333.91 234.03 333.92 234.09 333.93C234.16 333.95 234.22 333.97 234.28 334L239.87 337.29C240.07 337.42 240.08 337.62 239.87 337.74L235.05 340.52L235.06 340.47ZM297.18 278.93C297.25 278.92 297.31 278.91 297.38 278.91C297.45 278.91 297.51 278.92 297.58 278.93C297.64 278.95 297.7 278.97 297.76 279L303.34 282.22C303.54 282.35 303.55 282.54 303.34 282.66L298.52 285.45C298.46 285.48 298.4 285.5 298.33 285.52C298.27 285.54 298.2 285.54 298.13 285.54C298.07 285.54 298 285.54 297.94 285.52C297.87 285.5 297.81 285.48 297.75 285.45L292.17 282.23C291.98 282.1 291.97 281.91 292.17 281.79L297 279C297.06 278.97 297.12 278.95 297.18 278.93ZM288.45 283.88C288.51 283.85 288.58 283.83 288.64 283.82C288.71 283.81 288.78 283.8 288.85 283.81C288.91 283.81 288.98 283.83 289.05 283.85C289.11 283.87 289.17 283.89 289.23 283.93L294.81 287.15C295 287.27 295.01 287.47 294.81 287.59L289.98 290.38C289.92 290.41 289.86 290.43 289.79 290.45C289.73 290.46 289.66 290.47 289.59 290.47C289.53 290.47 289.46 290.46 289.4 290.45C289.33 290.43 289.27 290.41 289.21 290.38L283.64 287.16C283.45 287.03 283.43 286.83 283.64 286.72L288.46 283.93L288.45 283.88ZM304 274.88C304.07 274.85 304.13 274.82 304.21 274.81C304.28 274.8 304.35 274.79 304.42 274.8C304.49 274.8 304.57 274.81 304.63 274.84C304.7 274.86 304.77 274.89 304.83 274.93L310.41 278.15C310.6 278.27 310.61 278.47 310.41 278.59L305.58 281.38C305.52 281.41 305.46 281.43 305.39 281.45C305.33 281.47 305.26 281.47 305.19 281.47C305.13 281.47 305.06 281.47 305 281.45C304.93 281.43 304.87 281.41 304.81 281.38L299.23 278.16C299.03 278.03 299.02 277.83 299.23 277.72L304.05 274.93L304 274.88ZM267.54 312.52C267.48 312.55 267.42 312.58 267.36 312.6C267.3 312.62 267.24 312.63 267.17 312.63C267.11 312.64 267.04 312.63 266.98 312.62C266.91 312.61 266.85 312.6 266.79 312.57L261.21 309.35C261.01 309.22 261 309.02 261.21 308.91L266.03 306.12C266.09 306.09 266.15 306.07 266.22 306.05C266.28 306.03 266.35 306.03 266.41 306.03C266.48 306.03 266.55 306.03 266.61 306.05C266.68 306.07 266.74 306.09 266.8 306.12L272.38 309.34C272.57 309.46 272.58 309.66 272.38 309.78L267.55 312.57L267.54 312.52ZM317.46 274.1C317.65 274.22 317.66 274.42 317.46 274.54L312.63 277.33C312.57 277.36 312.51 277.38 312.44 277.4C312.38 277.41 312.31 277.42 312.24 277.42C312.18 277.42 312.11 277.41 312.05 277.4C311.98 277.38 311.92 277.36 311.86 277.33L306.28 274.11C306.08 273.98 306.07 273.78 306.28 273.67L311.1 270.88C311.16 270.85 311.22 270.83 311.29 270.81C311.35 270.79 311.42 270.79 311.48 270.79C311.55 270.79 311.62 270.79 311.68 270.81C311.75 270.83 311.81 270.85 311.87 270.88L317.46 274.1ZM241.92 336.48C241.86 336.5 241.79 336.52 241.72 336.52C241.65 336.52 241.58 336.52 241.52 336.51C241.45 336.5 241.38 336.48 241.32 336.45L235.74 333.23C235.54 333.1 235.53 332.9 235.74 332.78L240.56 330C240.62 329.97 240.68 329.95 240.75 329.93C240.81 329.91 240.88 329.91 240.94 329.91C241.01 329.91 241.08 329.91 241.14 329.93C241.21 329.95 241.27 329.97 241.33 330L246.94 333.17C247.13 333.3 247.14 333.5 246.94 333.62L242.11 336.4C242.05 336.43 241.99 336.46 241.92 336.48ZM328.58 286.48C328.52 286.51 328.45 286.53 328.39 286.55C328.32 286.56 328.25 286.57 328.18 286.56C328.11 286.56 328.04 286.55 327.98 286.53C327.91 286.51 327.85 286.48 327.79 286.45L322.21 283.23C322.01 283.11 322 282.91 322.21 282.79L327.03 280C327.09 279.97 327.15 279.95 327.22 279.93C327.28 279.91 327.35 279.91 327.42 279.91C327.48 279.91 327.55 279.91 327.61 279.93C327.68 279.95 327.74 279.97 327.8 280L333.41 283.25C333.6 283.38 333.61 283.58 333.41 283.69L328.58 286.48ZM313.56 286C313.5 286.02 313.44 286.04 313.38 286.05C313.31 286.06 313.25 286.07 313.18 286.06C313.12 286.06 313.06 286.05 313 286.03C312.93 286.01 312.88 285.98 312.82 285.95L307.24 282.73C307.04 282.6 307.03 282.41 307.24 282.29L312.06 279.5C312.12 279.47 312.18 279.45 312.25 279.43C312.31 279.41 312.38 279.41 312.45 279.41C312.51 279.41 312.58 279.41 312.64 279.43C312.71 279.45 312.77 279.47 312.83 279.5L318.41 282.72C318.6 282.85 318.61 283.04 318.41 283.16L313.58 285.95L313.56 286ZM325.44 278.65C325.63 278.77 325.64 278.97 325.44 279.09L320.61 281.88C320.55 281.91 320.49 281.93 320.42 281.95C320.36 281.97 320.29 281.97 320.23 281.97C320.16 281.97 320.09 281.97 320.03 281.95C319.96 281.93 319.9 281.91 319.84 281.88L314.26 278.66C314.06 278.53 314.05 278.33 314.26 278.22L319.08 275.43C319.14 275.4 319.2 275.38 319.27 275.36C319.33 275.34 319.4 275.34 319.47 275.34C319.53 275.34 319.6 275.34 319.66 275.36C319.73 275.38 319.79 275.4 319.85 275.43L325.44 278.65ZM321.32 274.57C321.1 274.44 321.08 274.24 321.34 274.13L326.16 271.34C326.22 271.31 326.28 271.29 326.35 271.27C326.41 271.25 326.48 271.25 326.55 271.25C326.61 271.25 326.68 271.25 326.74 271.27C326.81 271.29 326.87 271.31 326.93 271.34L340.48 279.16C340.67 279.29 340.68 279.48 340.48 279.6L335.65 282.39C335.59 282.42 335.53 282.44 335.46 282.46C335.4 282.48 335.33 282.48 335.27 282.48C335.2 282.48 335.13 282.48 335.07 282.46C335 282.44 334.94 282.42 334.88 282.39L321.34 274.57L321.32 274.57ZM305 283.55C305.06 283.52 305.12 283.5 305.18 283.49C305.24 283.48 305.31 283.47 305.37 283.47C305.44 283.48 305.5 283.48 305.56 283.5C305.62 283.52 305.68 283.54 305.74 283.57L311.32 286.79C311.52 286.92 311.53 287.12 311.32 287.23L306.5 290.02C306.44 290.05 306.38 290.07 306.31 290.09C306.25 290.11 306.18 290.11 306.12 290.11C306.05 290.11 305.98 290.11 305.92 290.09C305.85 290.07 305.79 290.05 305.73 290.02L300.15 286.8C299.96 286.68 299.95 286.48 300.15 286.36L304.98 283.57L305 283.55ZM251.89 314.19C251.95 314.16 252.01 314.14 252.08 314.13C252.14 314.11 252.21 314.11 252.27 314.11C252.34 314.11 252.4 314.12 252.47 314.14C252.53 314.15 252.59 314.18 252.65 314.21L258.23 317.43C258.43 317.56 258.44 317.76 258.23 317.87L253.41 320.66C253.35 320.69 253.29 320.71 253.22 320.73C253.16 320.75 253.09 320.75 253.03 320.75C252.96 320.75 252.89 320.75 252.83 320.73C252.76 320.71 252.7 320.69 252.64 320.66L247.06 317.44C246.87 317.32 246.86 317.12 247.06 317L251.91 314.21L251.89 314.19ZM315.21 287.33C315.01 287.21 315 287.01 315.21 286.89L320.03 284.1C320.09 284.07 320.15 284.05 320.22 284.03C320.28 284.02 320.35 284.01 320.42 284.01C320.48 284.01 320.55 284.02 320.61 284.03C320.68 284.05 320.74 284.07 320.8 284.1L326.38 287.32C326.57 287.45 326.58 287.65 326.38 287.76L321.55 290.55C321.49 290.58 321.43 290.6 321.36 290.62C321.3 290.64 321.23 290.64 321.17 290.64C321.1 290.64 321.03 290.64 320.97 290.62C320.9 290.6 320.84 290.58 320.78 290.55L315.21 287.33ZM258.94 310.12C259 310.09 259.07 310.06 259.14 310.05C259.2 310.03 259.27 310.03 259.34 310.03C259.41 310.03 259.48 310.04 259.55 310.06C259.62 310.08 259.68 310.11 259.74 310.14L265.32 313.36C265.51 313.49 265.52 313.68 265.32 313.8L260.49 316.59C260.43 316.62 260.37 316.64 260.3 316.66C260.24 316.68 260.17 316.68 260.11 316.68C260.04 316.68 259.97 316.68 259.91 316.66C259.84 316.64 259.78 316.62 259.72 316.59L254.14 313.37C253.94 313.24 253.93 313.05 254.14 312.93L258.96 310.14L258.94 310.12ZM200.53 353.54C200.34 353.41 200.32 353.22 200.53 353.1L205.35 350.31C205.41 350.28 205.47 350.26 205.54 350.24C205.6 350.22 205.67 350.22 205.74 350.22C205.8 350.22 205.87 350.22 205.93 350.24C206 350.26 206.06 350.28 206.12 350.31L211.7 353.53C211.89 353.66 211.9 353.85 211.7 353.97L206.87 356.76C206.81 356.79 206.75 356.81 206.68 356.83C206.62 356.85 206.55 356.85 206.49 356.85C206.42 356.85 206.35 356.85 206.29 356.83C206.22 356.81 206.16 356.79 206.1 356.76L200.53 353.54ZM195.48 346.76C195.54 346.73 195.6 346.7 195.67 346.69C195.73 346.67 195.8 346.66 195.87 346.66C195.94 346.66 196.01 346.67 196.07 346.69C196.14 346.7 196.2 346.73 196.26 346.76L201.84 349.98C202.04 350.11 202.05 350.3 201.84 350.42L197.02 353.21C196.96 353.24 196.9 353.26 196.83 353.28C196.77 353.3 196.7 353.3 196.64 353.3C196.57 353.3 196.5 353.3 196.44 353.28C196.37 353.26 196.31 353.24 196.25 353.21L190.67 349.99C190.48 349.86 190.47 349.67 190.67 349.55L195.5 346.76L195.48 346.76ZM213.91 352.69C213.85 352.72 213.78 352.74 213.71 352.76C213.65 352.77 213.58 352.78 213.51 352.78C213.44 352.77 213.37 352.76 213.3 352.74C213.23 352.72 213.17 352.7 213.11 352.66L207.53 349.44C207.34 349.31 207.33 349.11 207.53 349L212.4 346.24C212.46 346.21 212.52 346.19 212.59 346.17C212.65 346.15 212.72 346.15 212.79 346.15C212.85 346.15 212.92 346.15 212.98 346.17C213.05 346.19 213.11 346.21 213.17 346.24L218.75 349.46C218.94 349.58 218.95 349.78 218.75 349.9L213.93 352.69L213.91 352.69ZM221 348.62C220.94 348.65 220.87 348.67 220.81 348.69C220.74 348.71 220.67 348.71 220.61 348.71C220.54 348.71 220.47 348.71 220.4 348.69C220.34 348.67 220.27 348.65 220.21 348.62L214.63 345.4C214.44 345.27 214.43 345.07 214.63 344.95L219.46 342.17C219.52 342.14 219.58 342.12 219.65 342.1C219.71 342.08 219.78 342.08 219.85 342.08C219.91 342.08 219.98 342.08 220.04 342.1C220.11 342.12 220.17 342.14 220.23 342.17L225.8 345.39C225.99 345.51 226.01 345.71 225.8 345.83L220.98 348.62L221 348.62ZM228 344.54C227.94 344.57 227.87 344.6 227.81 344.62C227.74 344.63 227.67 344.64 227.6 344.64C227.53 344.64 227.46 344.63 227.39 344.62C227.33 344.6 227.26 344.57 227.2 344.54L221.62 341.32C221.43 341.19 221.42 340.99 221.62 340.87L226.45 338.09C226.51 338.06 226.57 338.04 226.64 338.02C226.7 338.01 226.77 338 226.84 338C226.9 338 226.97 338.01 227.03 338.02C227.1 338.04 227.16 338.06 227.22 338.09L232.8 341.32C233 341.44 233.01 341.64 232.8 341.76L227.98 344.54L228 344.54ZM202.53 342.69C202.59 342.66 202.65 342.64 202.71 342.63C202.77 342.61 202.84 342.6 202.9 342.6C202.96 342.6 203.03 342.61 203.09 342.63C203.15 342.64 203.21 342.66 203.27 342.69L208.85 345.91C209.04 346.03 209.05 346.23 208.85 346.35L204.02 349.14C203.96 349.17 203.9 349.19 203.83 349.21C203.77 349.23 203.7 349.23 203.64 349.23C203.57 349.23 203.5 349.23 203.44 349.21C203.37 349.19 203.31 349.17 203.25 349.14L197.67 345.92C197.48 345.79 197.47 345.59 197.67 345.48L202.5 342.69L202.53 342.69ZM209.58 338.62C209.64 338.58 209.71 338.56 209.78 338.54C209.86 338.52 209.93 338.52 210 338.52C210.08 338.52 210.15 338.53 210.22 338.55C210.29 338.57 210.36 338.6 210.42 338.64L216 341.86C216.19 341.98 216.2 342.18 216 342.3L211.08 345.07C211.02 345.1 210.96 345.12 210.89 345.14C210.83 345.15 210.76 345.16 210.7 345.16C210.63 345.16 210.56 345.15 210.5 345.14C210.43 345.12 210.37 345.1 210.31 345.07L204.73 341.85C204.53 341.72 204.52 341.52 204.73 341.4L209.55 338.62L209.58 338.62ZM237.79 322.34C237.85 322.31 237.92 322.28 237.99 322.26C238.05 322.24 238.12 322.24 238.19 322.24C238.27 322.24 238.34 322.24 238.4 322.26C238.47 322.28 238.54 322.31 238.6 322.34L244.17 325.56C244.36 325.69 244.38 325.89 244.17 326.01L239.35 328.79C239.29 328.82 239.23 328.84 239.16 328.86C239.1 328.87 239.03 328.88 238.97 328.88C238.9 328.88 238.83 328.87 238.77 328.86C238.7 328.84 238.64 328.82 238.58 328.79L233 325.57C232.81 325.44 232.8 325.24 233 325.12L237.76 322.34L237.79 322.34ZM230.73 326.41C230.79 326.38 230.85 326.36 230.91 326.35C230.97 326.33 231.04 326.33 231.1 326.33C231.16 326.33 231.23 326.33 231.29 326.35C231.35 326.36 231.41 326.38 231.47 326.41L237.05 329.63C237.24 329.76 237.26 329.96 237.05 330.08L232.23 332.86C232.17 332.89 232.11 332.91 232.04 332.93C231.98 332.94 231.91 332.95 231.85 332.95C231.78 332.95 231.71 332.94 231.65 332.93C231.58 332.91 231.52 332.89 231.46 332.86L225.88 329.64C225.69 329.51 225.68 329.31 225.88 329.19L230.7 326.41L230.73 326.41ZM244.84 318.26C244.9 318.23 244.96 318.21 245.02 318.2C245.09 318.19 245.15 318.18 245.22 318.18C245.28 318.18 245.35 318.19 245.41 318.2C245.47 318.22 245.53 318.24 245.59 318.27L251.17 321.49C251.37 321.62 251.38 321.82 251.17 321.93L246.35 324.72C246.29 324.75 246.23 324.77 246.16 324.79C246.1 324.8 246.03 324.81 245.97 324.81C245.9 324.81 245.83 324.8 245.77 324.79C245.7 324.77 245.64 324.75 245.58 324.72L240 321.49C239.81 321.37 239.8 321.17 240 321.05L244.81 318.26L244.84 318.26ZM216.63 334.55C216.69 334.52 216.75 334.5 216.81 334.48C216.87 334.47 216.94 334.46 217 334.46C217.07 334.46 217.13 334.47 217.2 334.48C217.26 334.49 217.32 334.51 217.38 334.54L222.96 337.77C223.15 337.89 223.16 338.09 222.96 338.21L218.13 341C218.07 341.03 218.01 341.05 217.94 341.07C217.88 341.08 217.81 341.09 217.75 341.09C217.68 341.09 217.61 341.08 217.55 341.07C217.48 341.05 217.42 341.03 217.36 341L211.78 337.78C211.58 337.65 211.57 337.45 211.78 337.33L216.6 334.55L216.63 334.55ZM223.68 330.48C223.74 330.45 223.8 330.43 223.86 330.42C223.92 330.4 223.99 330.4 224.05 330.4C224.11 330.4 224.18 330.4 224.24 330.42C224.3 330.43 224.36 330.45 224.42 330.48L230 333.7C230.19 333.83 230.2 334.03 230 334.15L225.17 336.93C225.11 336.96 225.05 336.98 224.99 337C224.92 337.02 224.86 337.02 224.79 337.02C224.72 337.02 224.66 337.02 224.59 337C224.53 336.98 224.47 336.96 224.41 336.93L218.83 333.71C218.64 333.58 218.62 333.38 218.83 333.26L223.65 330.48L223.68 330.48ZM218.54 359.22C218.48 359.25 218.41 359.28 218.35 359.3C218.28 359.31 218.21 359.32 218.14 359.32C218.07 359.32 218 359.31 217.93 359.3C217.87 359.28 217.8 359.25 217.74 359.22L212.16 356C211.97 355.87 211.95 355.67 212.16 355.56L216.98 352.77C217.04 352.74 217.1 352.72 217.17 352.7C217.23 352.68 217.3 352.68 217.37 352.68C217.43 352.68 217.5 352.68 217.56 352.7C217.63 352.72 217.69 352.74 217.75 352.77L223.33 355.99C223.52 356.11 223.53 356.31 223.33 356.43L218.51 359.22L218.54 359.22ZM177.17 355.46L172.35 358.25C172.29 358.28 172.23 358.3 172.16 358.32C172.1 358.34 172.03 358.34 171.97 358.34C171.9 358.34 171.83 358.34 171.77 358.32C171.7 358.3 171.64 358.28 171.58 358.25L166 355.03C165.81 354.9 165.8 354.71 166 354.59L170.81 351.78C170.87 351.75 170.93 351.73 171 351.71C171.06 351.69 171.13 351.69 171.19 351.69C171.26 351.69 171.33 351.69 171.39 351.71C171.46 351.73 171.52 351.75 171.58 351.78L177.16 355C177.38 355.17 177.39 355.37 177.17 355.46ZM187.72 358.14C187.94 358.27 188 358.47 187.77 358.57L180.35 362.85C180.29 362.88 180.23 362.9 180.16 362.92C180.1 362.94 180.03 362.94 179.97 362.94C179.9 362.94 179.83 362.94 179.77 362.92C179.7 362.9 179.64 362.88 179.58 362.85L174 359.63C173.81 359.51 173.8 359.31 174 359.19L181.38 354.88C181.44 354.85 181.5 354.83 181.56 354.81C181.63 354.8 181.69 354.79 181.76 354.79C181.83 354.79 181.89 354.8 181.96 354.81C182.02 354.83 182.08 354.85 182.14 354.88L187.72 358.1L187.72 358.14ZM168.6 348.81C168.82 348.94 168.83 349.14 168.59 349.25L162.66 352.67C162.6 352.7 162.54 352.72 162.47 352.74C162.41 352.76 162.34 352.76 162.28 352.76C162.21 352.76 162.14 352.76 162.08 352.74C162.01 352.72 161.95 352.7 161.89 352.67L156.31 349.45C156.12 349.32 156.11 349.12 156.31 349L162.23 345.59C162.29 345.56 162.35 345.54 162.42 345.52C162.48 345.5 162.55 345.5 162.62 345.5C162.68 345.5 162.75 345.5 162.81 345.52C162.88 345.54 162.94 345.56 163 345.59L168.6 348.77L168.6 348.81ZM167.56 342.92C167.37 342.8 167.36 342.6 167.56 342.48L172.39 339.69C172.45 339.66 172.51 339.64 172.58 339.62C172.64 339.6 172.71 339.6 172.77 339.6C172.84 339.6 172.91 339.6 172.97 339.62C173.04 339.64 173.1 339.66 173.16 339.69L178.74 342.91C178.94 343.04 178.95 343.24 178.74 343.35L173.92 346.14C173.86 346.17 173.8 346.19 173.73 346.21C173.67 346.23 173.6 346.23 173.54 346.23C173.47 346.23 173.4 346.23 173.34 346.21C173.27 346.19 173.21 346.17 173.15 346.14L167.56 342.92ZM197.55 361.67C197.77 361.8 197.78 362 197.58 362.12L188.3 367.48C188.24 367.51 188.18 367.53 188.11 367.55C188.05 367.56 187.98 367.57 187.92 367.57C187.85 367.57 187.78 367.56 187.72 367.55C187.65 367.53 187.59 367.51 187.53 367.48L181.95 364.25C181.76 364.13 181.75 363.93 181.95 363.81L191.23 358.45C191.29 358.42 191.35 358.4 191.42 358.38C191.48 358.37 191.55 358.36 191.62 358.36C191.68 358.36 191.75 358.37 191.81 358.38C191.88 358.4 191.94 358.42 192 358.45L197.55 361.63L197.55 361.67ZM202.18 368.2C202.4 368.33 202.41 368.53 202.18 368.67L196.24 372.1C196.18 372.13 196.12 372.15 196.05 372.17C195.99 372.18 195.92 372.19 195.86 372.19C195.79 372.19 195.72 372.18 195.66 372.17C195.59 372.15 195.53 372.13 195.47 372.1L189.89 368.88C189.7 368.75 189.69 368.55 189.89 368.43L195.83 365C195.89 364.97 195.95 364.95 196.02 364.93C196.08 364.91 196.15 364.91 196.21 364.91C196.28 364.91 196.35 364.91 196.41 364.93C196.48 364.95 196.54 364.97 196.6 365L202.18 368.16L202.18 368.2ZM220 312.69C219.81 312.57 219.8 312.37 220 312.25L224.82 309.42C224.88 309.39 224.94 309.37 225.01 309.35C225.07 309.34 225.14 309.33 225.2 309.33C225.27 309.33 225.34 309.34 225.4 309.35C225.47 309.37 225.53 309.39 225.59 309.42L231.17 312.64C231.36 312.77 231.38 312.97 231.17 313.09L226.35 315.87C226.29 315.9 226.23 315.92 226.16 315.94C226.1 315.96 226.03 315.96 225.97 315.96C225.9 315.96 225.83 315.96 225.77 315.94C225.7 315.92 225.64 315.9 225.58 315.87L220 312.69ZM205.9 320.8C205.71 320.67 205.69 320.47 205.9 320.35L210.72 317.57C210.78 317.54 210.84 317.52 210.91 317.5C210.97 317.49 211.04 317.48 211.11 317.48C211.17 317.48 211.24 317.49 211.3 317.5C211.37 317.52 211.43 317.54 211.49 317.57L217.07 320.79C217.26 320.92 217.27 321.12 217.07 321.24L212.24 324.02C212.18 324.05 212.12 324.07 212.05 324.09C211.99 324.1 211.92 324.11 211.86 324.11C211.79 324.11 211.72 324.1 211.66 324.09C211.59 324.07 211.53 324.05 211.47 324.02L205.9 320.8ZM174.61 338.89C174.42 338.76 174.41 338.57 174.61 338.45L179.44 335.66C179.5 335.63 179.56 335.61 179.63 335.59C179.69 335.57 179.76 335.57 179.82 335.57C179.89 335.57 179.96 335.57 180.02 335.59C180.09 335.61 180.15 335.63 180.21 335.66L185.79 338.88C185.99 339.01 186 339.2 185.79 339.32L180.97 342.11C180.91 342.14 180.85 342.16 180.78 342.18C180.72 342.2 180.65 342.2 180.58 342.2C180.52 342.2 180.45 342.2 180.39 342.18C180.32 342.16 180.26 342.14 180.2 342.11L174.61 338.89ZM212.95 316.78C212.76 316.65 212.74 316.45 212.95 316.33L217.77 313.55C217.83 313.52 217.89 313.5 217.96 313.48C218.02 313.46 218.09 313.46 218.15 313.46C218.22 313.46 218.29 313.46 218.35 313.48C218.42 313.5 218.48 313.52 218.54 313.55L224.12 316.77C224.31 316.9 224.32 317.1 224.12 317.22L219.29 320C219.23 320.03 219.17 320.05 219.11 320.07C219.04 320.08 218.98 320.09 218.91 320.09C218.84 320.09 218.78 320.08 218.71 320.07C218.65 320.05 218.59 320.03 218.53 320L212.95 316.78ZM198.85 324.92C198.65 324.79 198.64 324.59 198.85 324.47L203.67 321.69C203.73 321.66 203.79 321.64 203.86 321.62C203.92 321.61 203.99 321.6 204.06 321.6C204.12 321.6 204.19 321.61 204.25 321.62C204.32 321.64 204.38 321.66 204.44 321.69L210.02 324.91C210.21 325.04 210.22 325.24 210.02 325.36L205.19 328.14C205.13 328.17 205.07 328.19 205 328.21C204.94 328.23 204.87 328.23 204.81 328.23C204.74 328.23 204.67 328.23 204.61 328.21C204.54 328.19 204.48 328.17 204.42 328.14L198.85 324.92ZM211.63 371.94C211.82 372.07 211.84 372.27 211.63 372.39L204.21 376.67C204.15 376.7 204.09 376.72 204.02 376.74C203.96 376.76 203.89 376.76 203.83 376.76C203.76 376.76 203.69 376.76 203.63 376.74C203.56 376.72 203.5 376.7 203.44 376.67L197.86 373.45C197.67 373.32 197.66 373.12 197.86 373L205.28 368.73C205.34 368.7 205.4 368.68 205.47 368.66C205.53 368.65 205.6 368.64 205.67 368.64C205.73 368.64 205.8 368.65 205.86 368.66C205.93 368.68 205.99 368.7 206.05 368.73L211.63 371.94ZM188.73 330.78C188.53 330.65 188.52 330.45 188.73 330.34L193.55 327.55C193.61 327.52 193.67 327.5 193.74 327.48C193.8 327.46 193.87 327.46 193.94 327.46C194 327.46 194.07 327.46 194.13 327.48C194.2 327.5 194.26 327.52 194.32 327.55L199.9 330.77C200.09 330.89 200.1 331.09 199.9 331.21L195.07 334C195.01 334.03 194.95 334.05 194.88 334.07C194.82 334.08 194.75 334.09 194.69 334.09C194.62 334.09 194.55 334.08 194.49 334.07C194.42 334.05 194.36 334.03 194.3 334L188.73 330.78ZM181.68 334.78C181.48 334.65 181.47 334.45 181.68 334.34L186.5 331.55C186.56 331.52 186.62 331.5 186.69 331.48C186.75 331.46 186.82 331.46 186.88 331.46C186.95 331.46 187.02 331.46 187.08 331.48C187.15 331.5 187.21 331.52 187.27 331.55L192.85 334.77C193.04 334.89 193.05 335.09 192.85 335.21L188.02 338C187.96 338.03 187.9 338.05 187.83 338.07C187.77 338.09 187.7 338.09 187.63 338.09C187.57 338.09 187.5 338.09 187.44 338.07C187.37 338.05 187.31 338.03 187.25 338L181.68 334.78ZM342.29 296.55C342.49 296.68 342.5 296.88 342.29 297L330.35 303.81C330.29 303.84 330.23 303.86 330.16 303.88C330.1 303.89 330.03 303.9 329.96 303.9C329.9 303.9 329.83 303.89 329.77 303.88C329.7 303.86 329.64 303.84 329.58 303.81L324 300.59C323.81 300.46 323.8 300.26 324 300.14L335.92 293.3C335.98 293.27 336.04 293.25 336.11 293.23C336.17 293.21 336.24 293.21 336.31 293.21C336.37 293.21 336.44 293.21 336.5 293.23C336.57 293.25 336.63 293.27 336.69 293.3L342.29 296.55ZM326.69 305.52C326.88 305.65 326.89 305.85 326.69 305.97L321.86 308.75C321.8 308.78 321.74 308.8 321.67 308.82C321.61 308.83 321.54 308.84 321.48 308.84C321.41 308.84 321.34 308.83 321.28 308.82C321.21 308.8 321.15 308.78 321.09 308.75L315.51 305.53C315.31 305.4 315.3 305.2 315.51 305.08L320.33 302.3C320.39 302.27 320.45 302.25 320.52 302.23C320.58 302.21 320.65 302.21 320.72 302.21C320.78 302.21 320.85 302.21 320.91 302.23C320.98 302.25 321.04 302.27 321.1 302.3L326.69 305.52ZM225.59 355.15C225.53 355.18 225.47 355.2 225.4 355.21C225.34 355.23 225.27 355.24 225.2 355.23C225.14 355.23 225.07 355.23 225.01 355.21C224.94 355.19 224.88 355.17 224.82 355.14L219.24 351.92C219.05 351.79 219.04 351.59 219.24 351.47L224.07 348.69C224.13 348.66 224.19 348.64 224.26 348.62C224.32 348.61 224.39 348.6 224.46 348.6C224.52 348.6 224.59 348.61 224.65 348.62C224.72 348.64 224.78 348.66 224.84 348.69L230.41 351.92C230.6 352.04 230.62 352.24 230.41 352.36L225.59 355.15ZM312.57 313.66C312.77 313.79 312.78 313.99 312.57 314.11L307.75 316.89C307.69 316.92 307.63 316.94 307.56 316.96C307.5 316.98 307.43 316.98 307.37 316.98C307.3 316.98 307.23 316.98 307.17 316.96C307.1 316.94 307.04 316.92 306.98 316.89L301.4 313.67C301.21 313.54 301.2 313.34 301.4 313.22L306.23 310.44C306.29 310.41 306.35 310.39 306.42 310.37C306.48 310.36 306.55 310.35 306.62 310.35C306.68 310.35 306.75 310.36 306.81 310.37C306.88 310.39 306.94 310.41 307 310.44L312.57 313.66ZM349.33 292.44C349.52 292.57 349.53 292.77 349.33 292.89L344.5 295.67C344.44 295.7 344.38 295.72 344.31 295.74C344.25 295.75 344.18 295.76 344.11 295.76C344.05 295.76 343.98 295.75 343.92 295.74C343.85 295.72 343.79 295.7 343.73 295.67L338.15 292.44C337.95 292.32 337.94 292.12 338.15 292L342.97 289.23C343.03 289.2 343.09 289.18 343.16 289.16C343.22 289.15 343.29 289.14 343.36 289.14C343.42 289.14 343.49 289.15 343.55 289.16C343.62 289.18 343.68 289.2 343.74 289.23L349.33 292.44ZM356.38 288.82L351.55 291.61C351.49 291.64 351.43 291.66 351.36 291.68C351.3 291.7 351.23 291.7 351.17 291.7C351.1 291.7 351.03 291.7 350.97 291.68C350.9 291.66 350.84 291.64 350.78 291.61L337.23 283.79C337.03 283.67 337.02 283.47 337.23 283.35L342.05 280.56C342.11 280.53 342.17 280.51 342.24 280.49C342.3 280.47 342.37 280.47 342.44 280.47C342.5 280.47 342.57 280.47 342.63 280.49C342.7 280.51 342.76 280.53 342.82 280.56L356.37 288.38C356.59 288.51 356.6 288.71 356.38 288.82ZM286.23 328.88C286.42 329 286.43 329.2 286.23 329.32L280.29 332.75C280.23 332.78 280.17 332.8 280.1 332.82C280.04 332.84 279.97 332.84 279.9 332.84C279.84 332.84 279.77 332.84 279.71 332.82C279.64 332.8 279.58 332.78 279.52 332.75L273.94 329.53C273.75 329.41 273.74 329.21 273.94 329.09L279.88 325.66C279.94 325.63 280 325.61 280.07 325.59C280.13 325.57 280.2 325.57 280.26 325.57C280.33 325.57 280.4 325.57 280.46 325.59C280.53 325.61 280.59 325.63 280.65 325.66L286.23 328.88ZM304.04 318.59C304.23 318.72 304.24 318.92 304.04 319.04L296.62 323.32C296.56 323.35 296.5 323.37 296.43 323.39C296.37 323.4 296.3 323.41 296.23 323.41C296.17 323.41 296.1 323.4 296.04 323.39C295.97 323.37 295.91 323.35 295.85 323.32L290.27 320.09C290.08 319.97 290.07 319.77 290.27 319.65L297.69 315.37C297.75 315.34 297.81 315.32 297.88 315.3C297.94 315.28 298.01 315.28 298.07 315.28C298.14 315.28 298.21 315.28 298.27 315.3C298.34 315.32 298.4 315.34 298.46 315.37L304.04 318.59ZM269.9 338.29C270.09 338.42 270.1 338.62 269.9 338.74L230.19 361.67C230.13 361.7 230.07 361.72 230 361.74C229.94 361.75 229.87 361.76 229.81 361.76C229.74 361.76 229.67 361.75 229.61 361.74C229.54 361.72 229.48 361.7 229.42 361.67L223.84 358.45C223.65 358.32 223.64 358.12 223.84 358L263.55 335.08C263.61 335.05 263.67 335.03 263.74 335.01C263.8 335 263.87 334.99 263.94 334.99C264 334.99 264.07 335 264.13 335.01C264.2 335.03 264.26 335.05 264.32 335.08L269.9 338.29ZM228 362.56C228.19 362.68 228.2 362.88 228 363L222.03 366.39C221.97 366.42 221.91 366.44 221.84 366.46C221.78 366.48 221.71 366.48 221.64 366.48C221.58 366.48 221.51 366.48 221.45 366.46C221.38 366.44 221.32 366.42 221.26 366.39L215.68 363.17C215.48 363.05 215.47 362.85 215.68 362.73L221.61 359.3C221.67 359.27 221.73 359.25 221.8 359.23C221.86 359.21 221.93 359.21 222 359.21C222.06 359.21 222.13 359.21 222.19 359.23C222.26 359.25 222.32 359.27 222.38 359.3L228 362.56ZM278.07 333.6C278.26 333.73 278.28 333.93 278.07 334.04L272.13 337.47C272.07 337.5 272.01 337.52 271.94 337.54C271.88 337.55 271.81 337.56 271.75 337.56C271.68 337.56 271.61 337.55 271.55 337.54C271.48 337.52 271.42 337.5 271.36 337.47L265.78 334.25C265.58 334.12 265.57 333.92 265.78 333.8L271.71 330.37C271.77 330.34 271.83 330.32 271.9 330.3C271.96 330.29 272.03 330.28 272.1 330.28C272.16 330.28 272.23 330.29 272.29 330.3C272.36 330.32 272.42 330.34 272.48 330.37L278.07 333.6ZM219.79 367.23C219.99 367.36 220 367.56 219.79 367.68L213.86 371.1C213.8 371.13 213.74 371.15 213.67 371.17C213.61 371.18 213.54 371.19 213.48 371.19C213.41 371.19 213.34 371.18 213.28 371.17C213.21 371.15 213.15 371.13 213.09 371.1L207.51 367.88C207.32 367.75 207.31 367.55 207.51 367.43L213.45 364C213.51 363.97 213.57 363.95 213.64 363.93C213.7 363.92 213.77 363.91 213.83 363.91C213.9 363.91 213.97 363.92 214.03 363.93C214.1 363.95 214.16 363.97 214.22 364L219.79 367.23ZM294.4 324.14C294.59 324.27 294.61 324.47 294.4 324.59L288.46 328.02C288.4 328.05 288.34 328.07 288.27 328.09C288.21 328.1 288.14 328.11 288.07 328.11C288.01 328.11 287.94 328.1 287.88 328.09C287.81 328.07 287.75 328.05 287.69 328.02L282.11 324.8C281.91 324.67 281.9 324.47 282.11 324.35L288.04 320.93C288.1 320.9 288.16 320.88 288.23 320.86C288.29 320.85 288.36 320.84 288.43 320.84C288.49 320.84 288.56 320.85 288.62 320.86C288.69 320.88 288.75 320.9 288.81 320.93L294.4 324.14ZM319.64 309.58C319.83 309.71 319.84 309.91 319.64 310.03L314.81 312.81C314.75 312.84 314.69 312.86 314.62 312.88C314.56 312.89 314.49 312.9 314.43 312.9C314.36 312.9 314.29 312.89 314.23 312.88C314.16 312.86 314.1 312.84 314.04 312.81L308.46 309.59C308.26 309.46 308.25 309.26 308.46 309.14L313.28 306.36C313.34 306.33 313.4 306.31 313.47 306.29C313.53 306.27 313.6 306.27 313.67 306.27C313.73 306.27 313.8 306.27 313.86 306.29C313.93 306.31 313.99 306.33 314.05 306.36L319.64 309.58ZM329.5 295.15C329.44 295.18 329.38 295.2 329.31 295.22C329.24 295.23 329.18 295.24 329.11 295.24C329.04 295.24 328.98 295.23 328.91 295.22C328.84 295.2 328.78 295.18 328.72 295.15L323.14 291.92C322.95 291.8 322.94 291.6 323.14 291.48L327.97 288.69C328.03 288.66 328.09 288.64 328.16 288.62C328.22 288.61 328.29 288.6 328.36 288.6C328.42 288.6 328.49 288.61 328.55 288.62C328.62 288.64 328.68 288.66 328.74 288.69L334.32 291.91C334.52 292.04 334.53 292.24 334.32 292.36L329.5 295.14L329.5 295.15ZM297.81 295.07C297.75 295.09 297.68 295.09 297.62 295.09C297.55 295.09 297.48 295.09 297.42 295.07C297.35 295.05 297.29 295.03 297.23 295L291.66 291.78C291.47 291.65 291.45 291.46 291.66 291.34L296.48 288.55C296.54 288.52 296.6 288.5 296.67 288.48C296.73 288.46 296.8 288.46 296.87 288.46C296.93 288.46 297 288.46 297.06 288.48C297.13 288.5 297.19 288.52 297.25 288.55L302.83 291.77C303.02 291.89 303.03 292.09 302.83 292.21L298 295C297.94 295.03 297.88 295.05 297.81 295.07ZM282 322.58C281.94 322.61 281.88 322.64 281.82 322.66C281.75 322.68 281.69 322.69 281.62 322.7C281.55 322.7 281.49 322.7 281.42 322.69C281.36 322.68 281.29 322.66 281.23 322.63L275.65 319.41C275.46 319.28 275.45 319.08 275.65 318.97L289.75 310.82C289.81 310.79 289.87 310.77 289.94 310.75C290 310.74 290.07 310.73 290.14 310.73C290.2 310.73 290.27 310.74 290.33 310.75C290.4 310.77 290.46 310.79 290.52 310.82L296.1 314.04C296.29 314.17 296.3 314.37 296.1 314.49L282 322.63L282 322.58ZM316.09 296.04C315.9 295.91 315.89 295.71 316.09 295.59L320.92 292.81C320.98 292.78 321.04 292.76 321.11 292.74C321.17 292.72 321.24 292.72 321.31 292.72C321.37 292.72 321.44 292.72 321.5 292.74C321.57 292.76 321.63 292.78 321.69 292.81L327.27 296.03C327.47 296.16 327.48 296.36 327.27 296.48L322.45 299.26C322.39 299.29 322.33 299.31 322.26 299.33C322.2 299.34 322.13 299.35 322.06 299.35C322 299.35 321.93 299.34 321.87 299.33C321.8 299.31 321.74 299.29 321.68 299.26L316.09 296.04ZM314.48 294.62C314.42 294.65 314.36 294.68 314.3 294.7C314.23 294.72 314.16 294.74 314.1 294.74C314.03 294.75 313.96 294.75 313.89 294.73C313.83 294.72 313.76 294.71 313.7 294.68L308.12 291.45C307.93 291.33 307.92 291.13 308.12 291.01L312.95 288.22C313.01 288.19 313.07 288.17 313.14 288.15C313.2 288.14 313.27 288.13 313.34 288.13C313.4 288.13 313.47 288.14 313.53 288.15C313.6 288.17 313.66 288.19 313.72 288.22L319.3 291.44C319.5 291.57 319.51 291.77 319.3 291.89L314.48 294.67L314.48 294.62ZM275 326.65C274.94 326.69 274.87 326.72 274.8 326.74C274.72 326.76 274.65 326.77 274.58 326.77C274.5 326.77 274.43 326.76 274.36 326.74C274.28 326.73 274.21 326.7 274.15 326.66L268.57 323.44C268.38 323.31 268.36 323.12 268.57 323L273.42 320.22C273.48 320.19 273.54 320.17 273.61 320.15C273.67 320.13 273.74 320.13 273.81 320.13C273.87 320.13 273.94 320.13 274 320.15C274.07 320.17 274.13 320.19 274.19 320.22L279.77 323.44C279.96 323.57 279.98 323.76 279.77 323.88L274.95 326.67L275 326.65ZM300.52 305.01C300.32 304.89 300.31 304.69 300.52 304.57L305.34 301.78C305.4 301.75 305.46 301.73 305.53 301.71C305.59 301.7 305.66 301.69 305.73 301.69C305.79 301.69 305.86 301.7 305.92 301.71C305.99 301.73 306.05 301.75 306.11 301.78L311.69 305C311.88 305.13 311.89 305.33 311.69 305.45L306.86 308.23C306.8 308.26 306.74 308.28 306.67 308.3C306.61 308.31 306.54 308.32 306.48 308.32C306.41 308.32 306.34 308.31 306.28 308.3C306.21 308.28 306.15 308.26 306.09 308.23L300.52 305.01ZM239.5 347.07C239.43 347.08 239.37 347.09 239.3 347.09C239.23 347.09 239.17 347.08 239.1 347.07C239.03 347.05 238.97 347.03 238.91 347L233.33 343.78C233.14 343.65 233.13 343.45 233.33 343.33L238.16 340.55C238.22 340.52 238.28 340.5 238.35 340.48C238.41 340.47 238.48 340.46 238.54 340.46C238.61 340.46 238.68 340.47 238.74 340.48C238.81 340.5 238.87 340.52 238.93 340.55L244.51 343.77C244.71 343.9 244.72 344.1 244.51 344.22L239.69 347C239.63 347.03 239.57 347.05 239.5 347.07ZM246.55 343C246.49 343.01 246.43 343.02 246.36 343.02C246.29 343.02 246.23 343.01 246.17 343C246.1 342.98 246.04 342.96 245.98 342.93L240.4 339.71C240.21 339.58 240.2 339.38 240.4 339.26L245.23 336.48C245.29 336.45 245.35 336.43 245.42 336.41C245.48 336.39 245.55 336.39 245.62 336.39C245.68 336.39 245.75 336.39 245.81 336.41C245.88 336.43 245.94 336.45 246 336.48L251.57 339.7C251.76 339.83 251.77 340.03 251.57 340.15L246.74 342.93C246.68 342.96 246.62 342.98 246.55 343ZM232.64 351.07C232.58 351.1 232.52 351.12 232.45 351.14C232.39 351.16 232.32 351.16 232.25 351.16C232.19 351.16 232.12 351.16 232.06 351.14C231.99 351.12 231.93 351.1 231.87 351.07L226.29 347.85C226.1 347.72 226.09 347.52 226.29 347.4L231.12 344.62C231.18 344.59 231.24 344.57 231.31 344.55C231.37 344.54 231.44 344.53 231.5 344.53C231.57 344.53 231.64 344.54 231.7 344.55C231.77 344.57 231.83 344.59 231.89 344.62L237.46 347.84C237.66 347.97 237.67 348.17 237.46 348.29L232.64 351.07ZM260.84 334.79C260.78 334.82 260.72 334.84 260.66 334.86C260.59 334.87 260.53 334.88 260.46 334.88C260.39 334.88 260.33 334.87 260.26 334.86C260.2 334.84 260.14 334.82 260.08 334.79L254.5 331.57C254.3 331.45 254.29 331.25 254.5 331.13L259.32 328.34C259.38 328.31 259.44 328.29 259.51 328.27C259.57 328.26 259.64 328.25 259.71 328.25C259.77 328.25 259.84 328.26 259.9 328.27C259.97 328.29 260.03 328.31 260.09 328.34L265.67 331.56C265.86 331.69 265.87 331.89 265.67 332.01L260.84 334.79ZM253.79 338.86C253.73 338.89 253.66 338.92 253.6 338.93C253.53 338.95 253.46 338.96 253.39 338.96C253.32 338.96 253.25 338.95 253.18 338.93C253.12 338.92 253.05 338.89 252.99 338.86L247.41 335.63C247.21 335.51 247.2 335.31 247.41 335.19L252.23 332.41C252.29 332.38 252.35 332.36 252.42 332.34C252.48 332.32 252.55 332.32 252.62 332.32C252.68 332.32 252.75 332.32 252.81 332.34C252.88 332.36 252.94 332.38 253 332.41L258.67 335.63C258.86 335.76 258.87 335.96 258.67 336.08L253.84 338.86L253.79 338.86ZM267.89 330.72C267.83 330.75 267.76 330.77 267.69 330.78C267.62 330.79 267.55 330.8 267.48 330.79C267.41 330.79 267.34 330.77 267.28 330.75C267.21 330.73 267.15 330.7 267.09 330.66L261.52 327.44C261.33 327.32 261.31 327.12 261.52 327L266.42 324.27C266.48 324.24 266.54 324.22 266.61 324.2C266.67 324.18 266.74 324.18 266.81 324.18C266.87 324.18 266.94 324.18 267 324.2C267.07 324.22 267.13 324.24 267.19 324.27L272.77 327.49C272.96 327.62 272.97 327.82 272.77 327.93L267.94 330.72L267.89 330.72ZM298.72 269.63C298.53 269.5 298.52 269.3 298.72 269.18L303.55 266.4C303.61 266.37 303.67 266.35 303.74 266.33C303.8 266.32 303.87 266.31 303.94 266.31C304 266.31 304.07 266.32 304.13 266.33C304.2 266.35 304.26 266.37 304.32 266.4L305.8 267.26C305.99 267.39 306 267.59 305.8 267.7L300.97 270.49C300.91 270.52 300.85 270.54 300.78 270.56C300.72 270.58 300.65 270.58 300.59 270.58C300.52 270.58 300.45 270.58 300.39 270.56C300.32 270.54 300.26 270.52 300.2 270.49L298.72 269.63ZM259.92 289.67C259.73 289.54 259.72 289.34 259.92 289.22L264.75 286.44C264.81 286.41 264.87 286.39 264.94 286.37C265 286.36 265.07 286.35 265.14 286.35C265.2 286.35 265.27 286.36 265.33 286.37C265.4 286.39 265.46 286.41 265.52 286.44L271.1 289.66C271.3 289.79 271.31 289.99 271.1 290.11L266.28 292.89C266.22 292.92 266.16 292.94 266.09 292.96C266.03 292.98 265.96 292.98 265.9 292.98C265.83 292.98 265.76 292.98 265.7 292.96C265.63 292.94 265.57 292.92 265.51 292.89L259.92 289.67ZM274 281.53C273.8 281.4 273.79 281.2 274 281.08L278.86 278.3C278.92 278.27 278.98 278.25 279.05 278.23C279.11 278.21 279.18 278.21 279.25 278.21C279.31 278.21 279.38 278.21 279.44 278.23C279.51 278.25 279.57 278.27 279.63 278.3L285.21 281.52C285.4 281.65 285.41 281.85 285.21 281.97L280.38 284.75C280.32 284.78 280.26 284.8 280.19 284.82C280.13 284.83 280.06 284.84 280 284.84C279.93 284.84 279.86 284.83 279.8 284.82C279.73 284.8 279.67 284.78 279.61 284.75L274 281.53ZM251.31 294.63C251.12 294.5 251.11 294.3 251.31 294.18L256.14 291.4C256.2 291.37 256.26 291.35 256.33 291.33C256.39 291.32 256.46 291.31 256.53 291.31C256.59 291.31 256.66 291.32 256.72 291.33C256.79 291.35 256.85 291.37 256.91 291.4L262.49 294.63C262.69 294.75 262.7 294.95 262.49 295.07L257.67 297.86C257.61 297.89 257.55 297.91 257.48 297.93C257.42 297.94 257.35 297.95 257.29 297.95C257.22 297.95 257.15 297.94 257.09 297.93C257.02 297.91 256.96 297.89 256.9 297.86L251.31 294.63ZM266.99 285.64C266.79 285.51 266.78 285.31 266.99 285.19L271.81 282.41C271.87 282.38 271.93 282.36 272 282.34C272.06 282.33 272.13 282.32 272.2 282.32C272.26 282.32 272.33 282.33 272.39 282.34C272.46 282.36 272.52 282.38 272.58 282.41L278.16 285.63C278.35 285.76 278.36 285.96 278.16 286.08L273.33 288.86C273.27 288.89 273.21 288.91 273.14 288.93C273.08 288.94 273.01 288.95 272.95 288.95C272.88 288.95 272.81 288.94 272.75 288.93C272.68 288.91 272.62 288.89 272.56 288.86L266.99 285.64ZM237.17 302.78C236.98 302.65 236.97 302.45 237.17 302.34L242 299.55C242.06 299.52 242.12 299.5 242.19 299.48C242.25 299.46 242.32 299.46 242.38 299.46C242.45 299.46 242.52 299.46 242.58 299.48C242.65 299.5 242.71 299.52 242.77 299.55L248.34 302.77C248.53 302.89 248.55 303.09 248.34 303.21L243.52 306C243.46 306.03 243.4 306.05 243.33 306.07C243.27 306.09 243.2 306.09 243.13 306.09C243.07 306.09 243 306.09 242.94 306.07C242.87 306.05 242.81 306.03 242.75 306L237.17 302.78ZM244.22 298.71C244.03 298.58 244.02 298.38 244.22 298.27L249.05 295.48C249.11 295.45 249.17 295.43 249.24 295.41C249.3 295.39 249.37 295.39 249.44 295.39C249.5 295.39 249.57 295.39 249.63 295.41C249.7 295.43 249.76 295.45 249.82 295.48L255.39 298.7C255.59 298.82 255.6 299.02 255.39 299.14L250.57 301.93C250.51 301.96 250.45 301.98 250.38 302C250.32 302.01 250.25 302.02 250.19 302.02C250.12 302.02 250.05 302.01 249.99 302C249.92 301.98 249.86 301.96 249.8 301.93L244.22 298.71ZM284.57 277.78C284.38 277.65 284.36 277.45 284.57 277.33L289.39 274.55C289.45 274.52 289.51 274.5 289.58 274.48C289.64 274.47 289.71 274.46 289.77 274.46C289.84 274.46 289.91 274.47 289.97 274.48C290.04 274.5 290.1 274.52 290.16 274.55L291.65 275.41C291.84 275.54 291.85 275.74 291.65 275.86L286.82 278.64C286.76 278.67 286.7 278.69 286.63 278.71C286.57 278.72 286.5 278.73 286.44 278.73C286.37 278.73 286.3 278.72 286.24 278.71C286.17 278.69 286.11 278.67 286.05 278.64L284.57 277.78ZM305.72 265.56C305.53 265.43 305.52 265.23 305.72 265.11L310.55 262.33C310.61 262.3 310.67 262.28 310.74 262.26C310.8 262.24 310.87 262.24 310.94 262.24C311 262.24 311.07 262.24 311.13 262.26C311.2 262.28 311.26 262.3 311.32 262.33L312.8 263.19C312.99 263.32 313 263.51 312.8 263.63L307.97 266.42C307.91 266.45 307.85 266.47 307.79 266.49C307.72 266.51 307.66 266.51 307.59 266.51C307.52 266.51 307.46 266.51 307.39 266.49C307.33 266.47 307.27 266.45 307.21 266.42L305.72 265.56ZM313.35 269.96C313.16 269.83 313.14 269.63 313.35 269.51L318.17 266.73C318.23 266.7 318.29 266.68 318.36 266.66C318.42 266.65 318.49 266.64 318.56 266.64C318.62 266.64 318.69 266.65 318.75 266.66C318.82 266.68 318.88 266.7 318.94 266.73L324.52 269.96C324.71 270.08 324.72 270.28 324.52 270.4L319.69 273.19C319.63 273.22 319.57 273.24 319.5 273.26C319.44 273.27 319.37 273.28 319.31 273.28C319.24 273.28 319.17 273.27 319.11 273.26C319.04 273.24 318.98 273.22 318.92 273.19L313.35 269.96ZM336.55 291.08C336.49 291.11 336.43 291.13 336.37 291.15C336.3 291.16 336.24 291.17 336.17 291.17C336.1 291.17 336.04 291.16 335.97 291.15C335.91 291.13 335.85 291.11 335.79 291.08L330.21 287.86C330.01 287.74 330 287.54 330.21 287.42L335.03 284.63C335.09 284.6 335.15 284.58 335.22 284.56C335.28 284.55 335.35 284.54 335.42 284.54C335.48 284.54 335.55 284.55 335.61 284.56C335.68 284.58 335.74 284.6 335.8 284.63L341.38 287.85C341.57 287.98 341.58 288.18 341.38 288.29L336.55 291.08ZM291.62 273.71C291.43 273.58 291.42 273.38 291.62 273.26L296.44 270.48C296.5 270.45 296.56 270.43 296.63 270.41C296.69 270.4 296.76 270.39 296.82 270.39C296.89 270.39 296.96 270.4 297.02 270.41C297.09 270.43 297.15 270.45 297.21 270.48L298.7 271.34C298.89 271.47 298.9 271.67 298.7 271.79L293.87 274.57C293.81 274.6 293.75 274.62 293.68 274.64C293.62 274.65 293.55 274.66 293.49 274.66C293.42 274.66 293.35 274.65 293.29 274.64C293.22 274.62 293.16 274.6 293.1 274.57L291.62 273.71ZM230.12 306.85C229.93 306.72 229.92 306.53 230.12 306.41L234.94 303.62C235 303.59 235.06 303.57 235.13 303.55C235.19 303.53 235.26 303.53 235.32 303.53C235.39 303.53 235.46 303.53 235.52 303.55C235.59 303.57 235.65 303.59 235.71 303.62L241.29 306.84C241.48 306.97 241.49 307.16 241.29 307.28L236.47 310.07C236.41 310.1 236.35 310.12 236.28 310.14C236.22 310.16 236.15 310.16 236.09 310.16C236.02 310.16 235.95 310.16 235.89 310.14C235.82 310.12 235.76 310.1 235.7 310.07L230.12 306.85Z" />
			<path id="Layer" class="shp2" d="M264.37 353.9L317.17 323.41L349.67 342.17L296.86 372.66L264.37 353.9L264.37 353.9Z" />
		</g>
	</g>
	<g id="freepik--Window--inject-45">
		<g id="freepik--Tab--inject-45">
			<path id="Layer" class="shp5" d="M147 200.26L304.36 109.41C307.43 107.63 309.95 109.09 309.95 112.64L309.95 234.51C309.92 234.96 309.85 235.4 309.72 235.83C309.59 236.27 309.41 236.68 309.19 237.07C308.96 237.46 308.69 237.82 308.38 238.15C308.07 238.47 307.73 238.76 307.35 239.01L146 332.17C144.57 332.99 143.4 332.32 143.4 330.67L143.4 206.49C143.44 205.87 143.54 205.25 143.72 204.66C143.9 204.06 144.15 203.49 144.46 202.95C144.77 202.41 145.14 201.91 145.57 201.45C146 201 146.48 200.6 147 200.26Z" />
			<path id="Layer" class="shp6" d="M310 115.56L310 112.64C310 109.09 307.48 107.64 304.41 109.41L147 200.26C146.48 200.6 146 201 145.57 201.45C145.14 201.91 144.77 202.41 144.46 202.95C144.15 203.49 143.9 204.06 143.72 204.66C143.54 205.25 143.44 205.87 143.4 206.49L143.4 211.72L310 115.56Z" />
			<path id="Layer" class="shp4" d="M286.52 122.21C286.24 122.39 285.98 122.61 285.75 122.85C285.52 123.09 285.32 123.36 285.16 123.65C284.99 123.94 284.86 124.25 284.76 124.57C284.67 124.89 284.61 125.22 284.59 125.55C284.59 126.78 285.45 127.28 286.52 126.66C286.8 126.48 287.06 126.26 287.28 126.02C287.51 125.78 287.71 125.51 287.88 125.23C288.05 124.94 288.18 124.63 288.27 124.31C288.37 123.99 288.42 123.66 288.44 123.33C288.44 122.1 287.58 121.6 286.52 122.21Z" />
			<path id="Layer" class="shp4" d="M294.16 117.8C293.88 117.98 293.62 118.2 293.4 118.44C293.17 118.68 292.97 118.95 292.8 119.24C292.63 119.53 292.5 119.84 292.41 120.16C292.31 120.48 292.26 120.81 292.24 121.14C292.24 122.37 293.1 122.86 294.16 122.25C294.44 122.07 294.7 121.85 294.93 121.61C295.16 121.37 295.36 121.1 295.52 120.81C295.69 120.52 295.82 120.21 295.92 119.89C296.01 119.57 296.07 119.24 296.09 118.91C296.09 117.68 295.23 117.18 294.16 117.8Z" />
			<path id="Layer" class="shp4" d="M301.81 113.38C301.53 113.56 301.27 113.78 301.04 114.02C300.82 114.26 300.62 114.53 300.45 114.82C300.28 115.11 300.15 115.42 300.05 115.74C299.96 116.06 299.9 116.39 299.88 116.72C299.88 117.95 300.75 118.45 301.81 117.83C302.09 117.65 302.35 117.43 302.58 117.19C302.81 116.95 303.01 116.68 303.17 116.4C303.34 116.11 303.47 115.8 303.57 115.48C303.66 115.16 303.72 114.83 303.74 114.5C303.74 113.27 302.87 112.77 301.81 113.38Z" />
		</g>
	</g>
	<g id="freepik--magnifying-glass--inject-45">
		<g id="freepik--Lens--inject-45">
			<path id="Layer" class="shp1" d="M176.13 267.85L182.26 271.39L167.26 297.36L161.14 293.82L176.13 267.85Z" />
			<path id="Layer" class="shp2" d="M179.21 269.61L182.27 271.38L167.27 297.35L164.22 295.59L179.21 269.61Z" />
			<path id="Layer" class="shp6" d="M144.7 344.54C141.91 349.39 128.7 341.69 131.48 336.91L165.93 283.18C165.98 283.11 166.04 283.05 166.1 283C166.17 282.95 166.25 282.91 166.34 282.89C166.42 282.87 166.51 282.86 166.59 282.88C166.67 282.89 166.76 282.92 166.83 282.96L173.75 286.96C173.82 287 173.89 287.06 173.94 287.12C173.99 287.19 174.03 287.27 174.06 287.35C174.08 287.43 174.09 287.51 174.08 287.6C174.07 287.68 174.05 287.76 174.01 287.84L144.7 344.54Z" />
			<path id="Layer" class="shp7" d="M144.7 344.54L174 287.84C174.04 287.76 174.06 287.68 174.07 287.6C174.08 287.51 174.07 287.43 174.05 287.35C174.02 287.27 173.98 287.19 173.93 287.12C173.88 287.06 173.81 287 173.74 286.96L170.59 285.14L137 344.85C140.06 346.36 143.44 346.73 144.7 344.54Z" />
			<path id="Layer" fill-rule="evenodd" class="shp6" d="M246.05 219.55C246.05 241.56 230.59 268.35 211.52 279.35C205.12 283.04 199.14 284.49 194 283.95C193.7 283.92 193.4 283.88 193.1 283.83C193.09 283.83 193.07 283.83 193.06 283.84C193.04 283.84 193.03 283.84 193.01 283.84C193 283.84 192.99 283.84 192.97 283.84C192.96 283.83 192.94 283.83 192.93 283.83C192.68 283.8 192.42 283.75 192.18 283.7C192.15 283.69 192.11 283.69 192.08 283.68C192.04 283.68 192.01 283.67 191.97 283.66C191.94 283.65 191.91 283.65 191.87 283.64C191.84 283.63 191.8 283.62 191.77 283.61C191.72 283.6 191.68 283.59 191.63 283.58C191.58 283.57 191.53 283.56 191.49 283.55C191.44 283.54 191.4 283.52 191.35 283.51C191.3 283.5 191.26 283.48 191.21 283.47C191.16 283.46 191.12 283.45 191.07 283.44C191.02 283.43 190.98 283.41 190.93 283.4C190.89 283.39 190.84 283.37 190.79 283.36C190.75 283.34 190.7 283.33 190.66 283.31L190.15 283.16C189.83 283.06 189.51 282.95 189.2 282.81C188.89 282.67 188.54 282.52 188.2 282.35C188.13 282.32 188.06 282.28 187.99 282.25C187.92 282.22 187.85 282.18 187.78 282.15C187.72 282.11 187.65 282.07 187.58 282.04C187.51 282 187.45 281.96 187.38 281.92L187.21 281.83L187.15 281.83L172.97 273.66L172.91 273.66C166.7 270.04 162.86 262.34 162.86 251.34C162.86 229.32 178.32 202.54 197.38 191.54C202.93 188.34 208.17 186.82 212.81 186.82C213.58 186.81 214.36 186.85 215.13 186.94C215.9 187.03 216.66 187.17 217.41 187.36C218.16 187.55 218.9 187.79 219.61 188.07C220.33 188.36 221.03 188.69 221.71 189.07L221.79 189.12L235.96 197.3L236.01 197.3L236.25 197.45C236.33 197.49 236.4 197.54 236.48 197.59C236.55 197.63 236.63 197.68 236.7 197.73C236.78 197.78 236.85 197.83 236.92 197.88C237 197.93 237.07 197.98 237.14 198.03L237.69 198.43C237.87 198.56 238.05 198.7 238.22 198.85C238.31 198.92 238.39 199 238.48 199.07C238.57 199.15 238.65 199.22 238.73 199.3C238.82 199.38 238.9 199.46 238.98 199.54C239.06 199.62 239.14 199.7 239.22 199.78C239.34 199.9 239.46 200.01 239.57 200.13L239.84 200.41L240.16 200.77C240.32 200.95 240.47 201.13 240.62 201.32C240.77 201.5 240.92 201.69 241.06 201.88C241.21 202.07 241.35 202.27 241.48 202.46C241.62 202.66 241.75 202.86 241.88 203.06C241.95 203.17 241.99 203.22 242.1 203.4C242.21 203.58 242.39 203.9 242.42 203.94C242.42 203.95 242.43 203.95 242.43 203.95C242.42 203.95 242.42 203.95 242.5 204.08C242.62 204.28 242.73 204.49 242.83 204.7C242.86 204.74 242.88 204.78 242.9 204.83C242.93 204.87 242.95 204.91 242.97 204.95C242.99 205 243.01 205.04 243.03 205.09C243.05 205.13 243.07 205.18 243.09 205.22C243.22 205.46 243.28 205.65 243.44 205.95C243.6 206.25 243.76 206.65 243.88 206.95C244 207.25 244.11 207.56 244.23 207.88C244.23 207.89 244.24 207.91 244.24 207.92C244.24 207.93 244.25 207.94 244.25 207.96C244.26 207.97 244.26 207.98 244.26 207.99C244.27 208.01 244.27 208.02 244.28 208.03C244.39 208.37 244.49 208.7 244.6 209.03C244.81 209.72 244.99 210.44 245.16 211.18C245.22 211.45 245.27 211.71 245.33 212C245.39 212.29 245.44 212.59 245.49 212.88C245.6 213.53 245.7 214.2 245.77 214.88C245.85 215.14 245.76 215.27 245.85 215.66C245.94 216.05 245.88 216.44 245.94 216.84C246 217.24 246 217.64 246 218.05C246 218.57 246 219.09 246.05 219.55ZM222.84 202.48C222.15 202.66 221.47 202.86 220.8 203.08C220.12 203.31 219.46 203.56 218.8 203.83C218.15 204.1 217.5 204.4 216.87 204.72C216.23 205.04 215.61 205.38 215 205.74C198.21 215.48 184 240.06 184 259.48C183.99 260.19 184.01 260.9 184.06 261.61C184.1 262.31 184.17 263.02 184.26 263.72C184.35 264.43 184.46 265.13 184.6 265.82C184.74 266.52 184.9 267.21 185.09 267.89C185.78 267.71 186.46 267.51 187.14 267.29C187.82 267.06 188.48 266.81 189.14 266.54C189.8 266.26 190.45 265.97 191.09 265.65C191.72 265.33 192.35 264.98 192.96 264.62C209.75 254.88 223.96 230.3 223.96 210.88C223.97 210.17 223.95 209.46 223.91 208.76C223.86 208.05 223.8 207.34 223.71 206.64C223.61 205.94 223.5 205.24 223.36 204.55C223.22 203.85 223.06 203.16 222.87 202.48L222.84 202.48Z" />
			<path id="Layer" class="shp7" d="M186.57 281.55L172.8 273.61C166.59 269.98 162.75 262.26 162.75 251.3C162.75 241.48 165.83 230.72 170.92 220.84L185.1 229C180 238.88 176.93 249.64 176.93 259.46C176.93 270.22 180.59 277.83 186.57 281.55Z" />
			<path id="Layer" fill-rule="evenodd" class="shp8" d="M246.03 219.59C246.03 241.6 230.57 268.39 211.5 279.39C205.1 283.08 199.12 284.53 193.98 283.99C193.68 283.96 193.38 283.92 193.08 283.87C193.07 283.87 193.05 283.87 193.04 283.88C193.02 283.88 193.01 283.88 192.99 283.88C192.98 283.88 192.97 283.88 192.95 283.88C192.94 283.87 192.92 283.87 192.91 283.87C192.66 283.84 192.4 283.79 192.16 283.74C192.13 283.73 192.09 283.73 192.06 283.72C192.02 283.72 191.99 283.71 191.95 283.7C191.92 283.69 191.89 283.69 191.85 283.68C191.82 283.67 191.78 283.66 191.75 283.65C191.7 283.64 191.66 283.63 191.61 283.62C191.56 283.61 191.51 283.6 191.47 283.59C191.42 283.58 191.38 283.56 191.33 283.55C191.28 283.54 191.24 283.52 191.19 283.51C191.14 283.5 191.1 283.49 191.05 283.48C191 283.47 190.96 283.45 190.91 283.44C190.87 283.43 190.82 283.41 190.77 283.4C190.73 283.38 190.68 283.37 190.64 283.35L190.13 283.2C189.81 283.1 189.49 282.99 189.18 282.85C188.87 282.71 188.52 282.56 188.18 282.39C188.11 282.36 188.04 282.32 187.97 282.29C187.9 282.26 187.83 282.22 187.76 282.19C187.7 282.15 187.63 282.11 187.56 282.08C187.49 282.04 187.43 282 187.36 281.96C181.01 278.42 177.01 270.63 177.01 259.48C177.01 237.46 192.47 210.68 211.54 199.68C221.25 194.09 229.98 193.64 236.25 197.45C236.33 197.49 236.4 197.54 236.48 197.59C236.55 197.63 236.63 197.68 236.7 197.73C236.78 197.78 236.85 197.83 236.92 197.88C237 197.93 237.07 197.98 237.14 198.03L237.69 198.43C237.87 198.56 238.05 198.7 238.22 198.85C238.31 198.92 238.39 199 238.48 199.07C238.57 199.15 238.65 199.22 238.73 199.3C238.82 199.38 238.9 199.46 238.98 199.54C239.06 199.62 239.14 199.7 239.22 199.78C239.34 199.9 239.46 200.01 239.57 200.13L239.84 200.41L240.16 200.77C240.32 200.95 240.47 201.13 240.62 201.32C240.77 201.5 240.92 201.69 241.06 201.88C241.21 202.07 241.35 202.27 241.48 202.46C241.62 202.66 241.75 202.86 241.88 203.06C241.95 203.17 241.99 203.22 242.1 203.4C242.21 203.58 242.39 203.9 242.42 203.94C242.42 203.95 242.43 203.95 242.43 203.95C242.42 203.95 242.42 203.95 242.5 204.08C242.62 204.28 242.73 204.49 242.83 204.7C242.86 204.74 242.88 204.78 242.9 204.83C242.93 204.87 242.95 204.91 242.97 204.95C242.99 205 243.01 205.04 243.03 205.09C243.05 205.13 243.07 205.18 243.09 205.22C243.22 205.46 243.28 205.65 243.44 205.95C243.6 206.25 243.76 206.65 243.88 206.95C244 207.25 244.11 207.56 244.23 207.88C244.23 207.89 244.24 207.91 244.24 207.92C244.24 207.93 244.25 207.94 244.25 207.96C244.26 207.97 244.26 207.98 244.26 207.99C244.27 208.01 244.27 208.02 244.28 208.03C244.39 208.37 244.49 208.7 244.6 209.03C244.81 209.72 244.99 210.44 245.16 211.18C245.22 211.45 245.27 211.71 245.33 212C245.39 212.29 245.44 212.59 245.49 212.88C245.6 213.53 245.7 214.2 245.77 214.88C245.85 215.14 245.76 215.27 245.85 215.66C245.94 216.05 245.88 216.44 245.94 216.84C246 217.24 246 217.64 246 218.05C246 218.57 246 219.09 246.03 219.59ZM238.96 219.62C238.96 214.31 237.79 201.97 226.86 201.97C226.52 201.97 226.19 201.99 225.85 202.01C225.51 202.03 225.18 202.07 224.85 202.11C224.51 202.15 224.18 202.2 223.85 202.27C223.52 202.33 223.19 202.4 222.86 202.48C222.17 202.66 221.49 202.86 220.81 203.08C220.13 203.31 219.47 203.56 218.81 203.83C218.15 204.1 217.5 204.4 216.87 204.72C216.23 205.04 215.6 205.38 214.99 205.74C198.2 215.48 183.99 240.06 183.99 259.48C183.98 260.19 184 260.9 184.05 261.61C184.09 262.31 184.16 263.02 184.25 263.72C184.34 264.43 184.45 265.13 184.59 265.82C184.73 266.52 184.89 267.21 185.08 267.89C186.43 272.62 189.47 277.13 196.08 277.13C199.6 277.13 203.72 275.83 208 273.36C224.79 263.65 239 239 238.96 219.62Z" />
			<path id="Layer" class="shp7" d="M239 219.62C239 239.04 224.8 263.62 208 273.36C203.72 275.83 199.6 277.13 196.08 277.13C189.47 277.13 186.43 272.62 185.08 267.89C185.77 267.71 186.45 267.51 187.13 267.29C187.81 267.06 188.47 266.81 189.13 266.54C189.79 266.26 190.44 265.97 191.08 265.65C191.71 265.33 192.34 264.98 192.95 264.62C209.77 254.91 223.95 230.3 223.95 210.88C223.96 210.17 223.94 209.46 223.9 208.76C223.85 208.05 223.79 207.34 223.7 206.64C223.6 205.94 223.49 205.24 223.35 204.55C223.21 203.85 223.05 203.16 222.86 202.48C223.19 202.4 223.52 202.33 223.85 202.27C224.18 202.2 224.51 202.15 224.85 202.11C225.18 202.07 225.51 202.03 225.85 202.01C226.19 201.99 226.52 201.97 226.86 201.97C237.82 202 239 214.31 239 219.62Z" />
			<path id="Layer" class="shp9" d="M233 216.23C233 235.65 218.8 260.23 202 269.97C197.72 272.44 193.6 273.74 190.08 273.74C189.91 273.74 189.73 273.74 189.56 273.73C189.38 273.72 189.21 273.71 189.03 273.7C188.86 273.68 188.68 273.67 188.51 273.65C188.34 273.62 188.16 273.6 187.99 273.57C187.65 273.15 187.34 272.72 187.05 272.27C186.76 271.82 186.49 271.36 186.25 270.88C186 270.41 185.79 269.92 185.59 269.42C185.4 268.92 185.24 268.41 185.1 267.89C184.91 267.21 184.75 266.52 184.61 265.82C184.47 265.13 184.36 264.43 184.27 263.72C184.18 263.02 184.11 262.31 184.07 261.61C184.02 260.9 184 260.19 184.01 259.48C184.01 240.06 198.22 215.48 215.01 205.74C215.62 205.38 216.25 205.04 216.89 204.72C217.52 204.4 218.17 204.1 218.83 203.83C219.49 203.56 220.15 203.31 220.83 203.08C221.51 202.86 222.19 202.66 222.88 202.48C223.21 202.4 223.54 202.33 223.87 202.27C224.2 202.2 224.53 202.15 224.87 202.11C225.2 202.07 225.53 202.03 225.87 202.01C226.21 201.99 226.54 201.97 226.88 201.97C227.06 201.97 227.23 201.97 227.41 201.98C227.58 201.99 227.76 202 227.93 202.01C228.11 202.03 228.28 202.04 228.46 202.06C228.63 202.09 228.81 202.11 228.98 202.14C232.44 206.21 233 212.74 233 216.23Z" />
		</g>
	</g>
	<g id="freepik--search-tab--inject-45">
		<g id="freepik--search-taba--inject-45">
			<path id="Layer" class="shp10" d="M257.17 196L257.17 218.14C257.17 219.8 258.34 220.47 259.77 219.64L404.87 135.87C405.25 135.62 405.59 135.33 405.9 135.01C406.21 134.68 406.48 134.32 406.71 133.93C406.93 133.54 407.11 133.13 407.24 132.69C407.37 132.26 407.44 131.82 407.47 131.37L407.47 109.2C407.47 107.54 406.3 106.87 404.87 107.7L259.77 191.47C259.39 191.72 259.04 192.01 258.73 192.34C258.42 192.67 258.15 193.03 257.93 193.42C257.7 193.82 257.52 194.23 257.4 194.67C257.27 195.1 257.19 195.55 257.17 196Z" />
			<path id="Layer" class="shp6" d="M259.77 191.47L285.61 176.56L285.61 204.7L259.77 219.61C258.34 220.44 257.17 219.77 257.17 218.11L257.17 196C257.19 195.55 257.27 195.1 257.4 194.67C257.52 194.23 257.7 193.82 257.93 193.42C258.15 193.03 258.42 192.67 258.73 192.34C259.04 192.01 259.39 191.72 259.77 191.47Z" />
			<path id="Layer" fill-rule="evenodd" class="shp4" d="M279.57 194.08C279.51 195.26 279.32 196.44 278.98 197.58C278.65 198.71 278.18 199.81 277.59 200.83C276.99 201.86 276.28 202.81 275.46 203.67C274.64 204.53 273.73 205.29 272.73 205.93C272.47 206.09 272.2 206.23 271.92 206.35C271.64 206.47 271.35 206.57 271.06 206.66C270.76 206.74 270.46 206.81 270.16 206.85C269.86 206.9 269.56 206.92 269.25 206.93C269.17 206.93 269.1 206.93 269.02 206.92C268.95 206.92 268.87 206.91 268.8 206.9C268.72 206.9 268.65 206.89 268.57 206.88C268.5 206.87 268.42 206.85 268.35 206.84L265.6 211.6C265.53 211.71 265.45 211.82 265.36 211.91C265.27 212 265.16 212.08 265.05 212.15C264.94 212.21 264.82 212.27 264.69 212.3C264.56 212.33 264.43 212.35 264.3 212.35C264.23 212.35 264.17 212.34 264.1 212.34C264.04 212.33 263.98 212.31 263.91 212.3C263.85 212.28 263.79 212.26 263.73 212.24C263.67 212.21 263.61 212.18 263.55 212.15C263.39 212.05 263.24 211.92 263.13 211.77C263.01 211.62 262.93 211.44 262.88 211.26C262.83 211.08 262.81 210.88 262.83 210.69C262.85 210.5 262.91 210.32 263 210.15L265.78 205.39C265.54 205.09 265.33 204.77 265.16 204.43C264.98 204.09 264.83 203.74 264.71 203.38C264.59 203.01 264.51 202.64 264.46 202.26C264.41 201.88 264.39 201.5 264.41 201.12C264.47 199.93 264.66 198.76 265 197.62C265.33 196.48 265.8 195.39 266.39 194.36C266.99 193.34 267.7 192.38 268.52 191.52C269.34 190.67 270.26 189.91 271.26 189.27C273.37 188.05 275.43 187.9 277.06 188.84C278.7 189.79 279.6 191.65 279.57 194.08ZM273.37 201.56C274 200.89 274.55 200.14 275.02 199.34C275.48 198.54 275.85 197.69 276.11 196.81C276.38 195.92 276.54 195.01 276.6 194.09C276.63 193.85 276.64 193.6 276.61 193.35C276.58 193.11 276.53 192.87 276.44 192.64C276.35 192.41 276.24 192.19 276.1 191.99C275.95 191.78 275.79 191.6 275.6 191.44C275.54 191.4 275.47 191.37 275.4 191.35C275.33 191.32 275.26 191.3 275.19 191.28C275.12 191.27 275.05 191.25 274.98 191.25C274.91 191.24 274.83 191.24 274.76 191.24C274.58 191.25 274.41 191.27 274.23 191.3C274.06 191.33 273.89 191.37 273.72 191.42C273.55 191.48 273.38 191.54 273.22 191.62C273.06 191.69 272.91 191.78 272.76 191.87C271.99 192.38 271.28 192.98 270.65 193.65C270.01 194.32 269.46 195.07 269 195.87C268.54 196.67 268.17 197.52 267.9 198.4C267.63 199.29 267.47 200.2 267.41 201.12C267.26 201.61 267.28 202.14 267.47 202.62C267.66 203.1 268 203.51 268.45 203.76C268.9 204.02 269.42 204.12 269.93 204.04C270.44 203.97 270.91 203.72 271.26 203.34C272.03 202.83 272.74 202.23 273.37 201.56Z" />
		</g>
	</g>
</svg>